<mxfile host="app.diagrams.net" agent="Mozilla/5.0 (X11; Linux x86_64; rv:135.0) Gecko/20100101 Firefox/135.0" version="26.0.16">
  <diagram name="Page-1" id="c7558073-3199-34d8-9f00-42111426c3f3">
    <mxGraphModel dx="2513" dy="2062" grid="1" gridSize="10" guides="1" tooltips="1" connect="1" arrows="1" fold="1" page="1" pageScale="1" pageWidth="826" pageHeight="1169" background="none" math="0" shadow="0">
      <root>
        <mxCell id="0" />
        <mxCell id="1" parent="0" />
        <mxCell id="k5VYn-M9ERcO1B340P1r-131" value="&lt;span&gt;World_t world&lt;/span&gt;" style="swimlane;whiteSpace=wrap;html=1;strokeColor=#b85450;align=center;verticalAlign=middle;swimlaneFillColor=none;fontFamily=Courier New;fontSize=11;fontColor=default;fontStyle=0;labelBackgroundColor=none;fillColor=#f8cecc;gradientColor=none;" parent="1" vertex="1">
          <mxGeometry x="200" y="-40" width="750" height="530" as="geometry" />
        </mxCell>
        <mxCell id="k5VYn-M9ERcO1B340P1r-107" value="" style="endArrow=classic;html=1;rounded=1;strokeColor=#990000;strokeWidth=2;align=center;verticalAlign=middle;fontFamily=Courier New;fontSize=11;fontColor=default;labelBackgroundColor=default;edgeStyle=elbowEdgeStyle;elbow=horizontal;exitX=1;exitY=0.5;exitDx=0;exitDy=0;entryX=1.01;entryY=0.163;entryDx=0;entryDy=0;entryPerimeter=0;jumpStyle=arc;startArrow=baseDash;startFill=0;" parent="k5VYn-M9ERcO1B340P1r-131" source="k5VYn-M9ERcO1B340P1r-114" target="k5VYn-M9ERcO1B340P1r-117" edge="1">
          <mxGeometry relative="1" as="geometry">
            <mxPoint x="359.9859999999999" y="370" as="sourcePoint" />
            <mxPoint x="360.01" y="421" as="targetPoint" />
            <Array as="points">
              <mxPoint x="360.01" y="380" />
            </Array>
          </mxGeometry>
        </mxCell>
        <mxCell id="k5VYn-M9ERcO1B340P1r-110" style="edgeStyle=elbowEdgeStyle;shape=connector;rounded=1;orthogonalLoop=1;jettySize=auto;elbow=horizontal;html=1;exitX=0.5;exitY=0;exitDx=0;exitDy=0;strokeColor=#990000;strokeWidth=2;align=center;verticalAlign=middle;fontFamily=Helvetica;fontSize=11;fontColor=default;labelBackgroundColor=default;endArrow=classic;" parent="k5VYn-M9ERcO1B340P1r-131" edge="1">
          <mxGeometry relative="1" as="geometry">
            <mxPoint x="200.99" y="401" as="sourcePoint" />
            <mxPoint x="200.89697674418608" y="401" as="targetPoint" />
          </mxGeometry>
        </mxCell>
        <mxCell id="k5VYn-M9ERcO1B340P1r-111" value="" style="endArrow=classic;html=1;rounded=1;strokeColor=#990000;strokeWidth=2;align=center;verticalAlign=middle;fontFamily=Courier New;fontSize=11;fontColor=default;labelBackgroundColor=default;edgeStyle=elbowEdgeStyle;elbow=horizontal;exitX=0;exitY=0.5;exitDx=0;exitDy=0;jumpStyle=arc;startArrow=baseDash;startFill=0;" parent="k5VYn-M9ERcO1B340P1r-131" source="k5VYn-M9ERcO1B340P1r-118" edge="1">
          <mxGeometry relative="1" as="geometry">
            <mxPoint x="79.99000000000001" y="460" as="sourcePoint" />
            <mxPoint x="79.99000000000001" y="250" as="targetPoint" />
            <Array as="points">
              <mxPoint x="39.99000000000001" y="350" />
            </Array>
          </mxGeometry>
        </mxCell>
        <mxCell id="k5VYn-M9ERcO1B340P1r-113" value="region_t *regions" style="swimlane;fontStyle=0;childLayout=stackLayout;horizontal=1;startSize=30;horizontalStack=0;resizeParent=1;resizeParentMax=0;resizeLast=0;collapsible=1;marginBottom=0;whiteSpace=wrap;html=1;fontFamily=Courier New;fontSize=11;labelBackgroundColor=none;fillColor=#f8cecc;strokeColor=#b85450;gradientColor=none;swimlaneFillColor=none;" parent="k5VYn-M9ERcO1B340P1r-131" vertex="1">
          <mxGeometry x="79.99000000000001" y="231" width="240" height="120" as="geometry" />
        </mxCell>
        <mxCell id="k5VYn-M9ERcO1B340P1r-115" value="admin_ptr" style="text;strokeColor=none;fillColor=none;align=left;verticalAlign=middle;spacingLeft=4;spacingRight=4;overflow=hidden;points=[[0,0.5],[1,0.5]];portConstraint=eastwest;rotatable=0;whiteSpace=wrap;html=1;fontFamily=Courier New;fontSize=11;fontColor=default;labelBackgroundColor=default;" parent="k5VYn-M9ERcO1B340P1r-113" vertex="1">
          <mxGeometry y="30" width="240" height="30" as="geometry" />
        </mxCell>
        <mxCell id="k5VYn-M9ERcO1B340P1r-114" value="&lt;font face=&quot;Courier New&quot;&gt;cell_ids[]&lt;/font&gt;" style="text;align=left;verticalAlign=middle;spacingLeft=4;spacingRight=4;overflow=hidden;points=[[0,0.5],[1,0.5]];portConstraint=eastwest;rotatable=0;whiteSpace=wrap;html=1;fontFamily=Courier New;fontSize=11;labelBackgroundColor=default;" parent="k5VYn-M9ERcO1B340P1r-113" vertex="1">
          <mxGeometry y="60" width="240" height="30" as="geometry" />
        </mxCell>
        <mxCell id="k5VYn-M9ERcO1B340P1r-116" value="baked data..." style="text;strokeColor=none;fillColor=none;align=left;verticalAlign=middle;spacingLeft=4;spacingRight=4;overflow=hidden;points=[[0,0.5],[1,0.5]];portConstraint=eastwest;rotatable=0;whiteSpace=wrap;html=1;fontFamily=Courier New;fontSize=11;fontColor=default;labelBackgroundColor=default;" parent="k5VYn-M9ERcO1B340P1r-113" vertex="1">
          <mxGeometry y="90" width="240" height="30" as="geometry" />
        </mxCell>
        <mxCell id="k5VYn-M9ERcO1B340P1r-117" value="cell_t *cells" style="swimlane;fontStyle=0;childLayout=stackLayout;horizontal=1;startSize=30;horizontalStack=0;resizeParent=1;resizeParentMax=0;resizeLast=0;collapsible=1;marginBottom=0;whiteSpace=wrap;html=1;fontFamily=Courier New;fontSize=11;labelBackgroundColor=none;fillColor=#f8cecc;strokeColor=#b85450;gradientColor=none;swimlaneFillColor=none;" parent="k5VYn-M9ERcO1B340P1r-131" vertex="1">
          <mxGeometry x="79.99000000000001" y="410" width="240" height="90" as="geometry" />
        </mxCell>
        <mxCell id="k5VYn-M9ERcO1B340P1r-118" value="region_id" style="text;align=left;verticalAlign=middle;spacingLeft=4;spacingRight=4;overflow=hidden;points=[[0,0.5],[1,0.5]];portConstraint=eastwest;rotatable=0;whiteSpace=wrap;html=1;fontFamily=Courier New;fontSize=11;labelBackgroundColor=default;" parent="k5VYn-M9ERcO1B340P1r-117" vertex="1">
          <mxGeometry y="30" width="240" height="30" as="geometry" />
        </mxCell>
        <mxCell id="k5VYn-M9ERcO1B340P1r-119" value="data..." style="text;strokeColor=none;fillColor=none;align=left;verticalAlign=middle;spacingLeft=4;spacingRight=4;overflow=hidden;points=[[0,0.5],[1,0.5]];portConstraint=eastwest;rotatable=0;whiteSpace=wrap;html=1;fontFamily=Courier New;fontSize=11;fontColor=default;labelBackgroundColor=default;" parent="k5VYn-M9ERcO1B340P1r-117" vertex="1">
          <mxGeometry y="60" width="240" height="30" as="geometry" />
        </mxCell>
        <mxCell id="k5VYn-M9ERcO1B340P1r-121" value="administration_t *admins" style="swimlane;fontStyle=0;childLayout=stackLayout;horizontal=1;startSize=30;horizontalStack=0;resizeParent=1;resizeParentMax=0;resizeLast=0;collapsible=1;marginBottom=0;whiteSpace=wrap;html=1;fontFamily=Courier New;fontSize=11;labelBackgroundColor=none;fillColor=#f8cecc;strokeColor=#b85450;gradientColor=none;swimlaneFillColor=none;" parent="k5VYn-M9ERcO1B340P1r-131" vertex="1">
          <mxGeometry x="79.99000000000001" y="40" width="240" height="180" as="geometry" />
        </mxCell>
        <mxCell id="k5VYn-M9ERcO1B340P1r-122" value="parent_ptr" style="text;strokeColor=none;fillColor=none;align=left;verticalAlign=middle;spacingLeft=4;spacingRight=4;overflow=hidden;points=[[0,0.5],[1,0.5]];portConstraint=eastwest;rotatable=0;whiteSpace=wrap;html=1;fontFamily=Courier New;fontSize=11;fontColor=default;labelBackgroundColor=default;" parent="k5VYn-M9ERcO1B340P1r-121" vertex="1">
          <mxGeometry y="30" width="240" height="30" as="geometry" />
        </mxCell>
        <mxCell id="k5VYn-M9ERcO1B340P1r-123" value="&lt;font face=&quot;Courier New&quot;&gt;child_admins[]&lt;/font&gt;" style="text;align=left;verticalAlign=middle;spacingLeft=4;spacingRight=4;overflow=hidden;points=[[0,0.5],[1,0.5]];portConstraint=eastwest;rotatable=0;whiteSpace=wrap;html=1;fontFamily=Courier New;fontSize=11;labelBackgroundColor=default;" parent="k5VYn-M9ERcO1B340P1r-121" vertex="1">
          <mxGeometry y="60" width="240" height="30" as="geometry" />
        </mxCell>
        <mxCell id="k5VYn-M9ERcO1B340P1r-127" style="edgeStyle=elbowEdgeStyle;shape=connector;rounded=1;orthogonalLoop=1;jettySize=auto;elbow=horizontal;html=1;exitX=0;exitY=0.5;exitDx=0;exitDy=0;strokeColor=#990000;strokeWidth=2;align=center;verticalAlign=middle;fontFamily=Courier New;fontSize=11;fontColor=default;labelBackgroundColor=default;endArrow=classic;jumpStyle=arc;startArrow=baseDash;startFill=0;" parent="k5VYn-M9ERcO1B340P1r-121" source="k5VYn-M9ERcO1B340P1r-122" edge="1">
          <mxGeometry relative="1" as="geometry">
            <mxPoint y="10" as="targetPoint" />
            <Array as="points">
              <mxPoint x="-40" y="40" />
            </Array>
          </mxGeometry>
        </mxCell>
        <mxCell id="k5VYn-M9ERcO1B340P1r-128" style="edgeStyle=elbowEdgeStyle;shape=connector;rounded=1;orthogonalLoop=1;jettySize=auto;elbow=horizontal;html=1;exitX=0;exitY=0.5;exitDx=0;exitDy=0;strokeColor=#990000;strokeWidth=2;align=center;verticalAlign=middle;fontFamily=Courier New;fontSize=11;fontColor=default;labelBackgroundColor=default;endArrow=classic;jumpStyle=arc;startArrow=baseDash;startFill=0;" parent="k5VYn-M9ERcO1B340P1r-121" source="k5VYn-M9ERcO1B340P1r-123" edge="1">
          <mxGeometry relative="1" as="geometry">
            <mxPoint y="10" as="targetPoint" />
            <Array as="points">
              <mxPoint x="-40" y="60" />
            </Array>
          </mxGeometry>
        </mxCell>
        <mxCell id="k5VYn-M9ERcO1B340P1r-130" style="edgeStyle=elbowEdgeStyle;shape=connector;rounded=1;orthogonalLoop=1;jettySize=auto;elbow=horizontal;html=1;exitX=0;exitY=0.5;exitDx=0;exitDy=0;strokeColor=#990000;strokeWidth=2;align=center;verticalAlign=middle;fontFamily=Courier New;fontSize=11;fontColor=default;labelBackgroundColor=default;endArrow=classic;jumpStyle=arc;startArrow=baseDash;startFill=0;" parent="k5VYn-M9ERcO1B340P1r-121" source="k5VYn-M9ERcO1B340P1r-124" edge="1">
          <mxGeometry relative="1" as="geometry">
            <mxPoint y="210" as="targetPoint" />
            <Array as="points">
              <mxPoint x="-40" y="160" />
            </Array>
          </mxGeometry>
        </mxCell>
        <mxCell id="k5VYn-M9ERcO1B340P1r-124" value="region_ids[]" style="text;strokeColor=none;fillColor=none;align=left;verticalAlign=middle;spacingLeft=4;spacingRight=4;overflow=hidden;points=[[0,0.5],[1,0.5]];portConstraint=eastwest;rotatable=0;whiteSpace=wrap;html=1;fontFamily=Courier New;fontSize=11;fontColor=default;labelBackgroundColor=default;" parent="k5VYn-M9ERcO1B340P1r-121" vertex="1">
          <mxGeometry y="90" width="240" height="30" as="geometry" />
        </mxCell>
        <mxCell id="k5VYn-M9ERcO1B340P1r-129" value="market_t *mrkt_ptr OR &lt;b&gt;NULL&lt;/b&gt;" style="text;strokeColor=none;fillColor=none;align=left;verticalAlign=middle;spacingLeft=4;spacingRight=4;overflow=hidden;points=[[0,0.5],[1,0.5]];portConstraint=eastwest;rotatable=0;whiteSpace=wrap;html=1;fontFamily=Courier New;fontSize=11;fontColor=default;labelBackgroundColor=default;" parent="k5VYn-M9ERcO1B340P1r-121" vertex="1">
          <mxGeometry y="120" width="240" height="30" as="geometry" />
        </mxCell>
        <mxCell id="sh7tVW11IKmXvSeuLfNp-17" value="data..." style="text;strokeColor=none;fillColor=none;align=left;verticalAlign=middle;spacingLeft=4;spacingRight=4;overflow=hidden;points=[[0,0.5],[1,0.5]];portConstraint=eastwest;rotatable=0;whiteSpace=wrap;html=1;fontFamily=Courier New;fontSize=11;fontColor=default;labelBackgroundColor=default;" vertex="1" parent="k5VYn-M9ERcO1B340P1r-121">
          <mxGeometry y="150" width="240" height="30" as="geometry" />
        </mxCell>
        <mxCell id="k5VYn-M9ERcO1B340P1r-125" style="edgeStyle=elbowEdgeStyle;shape=connector;rounded=1;orthogonalLoop=1;jettySize=auto;elbow=horizontal;html=1;exitX=1;exitY=0.5;exitDx=0;exitDy=0;entryX=1.01;entryY=0.108;entryDx=0;entryDy=0;entryPerimeter=0;strokeColor=#990000;strokeWidth=2;align=center;verticalAlign=middle;fontFamily=Courier New;fontSize=11;fontColor=default;labelBackgroundColor=default;endArrow=classic;jumpStyle=arc;startArrow=baseDash;startFill=0;" parent="k5VYn-M9ERcO1B340P1r-131" source="k5VYn-M9ERcO1B340P1r-115" target="k5VYn-M9ERcO1B340P1r-121" edge="1">
          <mxGeometry relative="1" as="geometry">
            <Array as="points">
              <mxPoint x="359.99" y="180" />
            </Array>
          </mxGeometry>
        </mxCell>
        <mxCell id="sh7tVW11IKmXvSeuLfNp-5" value="market_t" style="swimlane;fontStyle=0;childLayout=stackLayout;horizontal=1;startSize=30;horizontalStack=0;resizeParent=1;resizeParentMax=0;resizeLast=0;collapsible=1;marginBottom=0;whiteSpace=wrap;html=1;strokeColor=#b85450;align=center;verticalAlign=middle;swimlaneFillColor=none;fontFamily=Courier New;fontSize=11;fontColor=default;labelBackgroundColor=none;fillColor=#f8cecc;gradientColor=none;" vertex="1" parent="k5VYn-M9ERcO1B340P1r-131">
          <mxGeometry x="386" y="40" width="240" height="150" as="geometry" />
        </mxCell>
        <mxCell id="sh7tVW11IKmXvSeuLfNp-7" value="bourgeoisie_stored_yields" style="text;strokeColor=none;fillColor=none;align=left;verticalAlign=middle;spacingLeft=4;spacingRight=4;overflow=hidden;points=[[0,0.5],[1,0.5]];portConstraint=eastwest;rotatable=0;whiteSpace=wrap;html=1;fontFamily=Courier New;fontSize=11;fontColor=default;fontStyle=0;labelBackgroundColor=none;" vertex="1" parent="sh7tVW11IKmXvSeuLfNp-5">
          <mxGeometry y="30" width="240" height="30" as="geometry" />
        </mxCell>
        <mxCell id="sh7tVW11IKmXvSeuLfNp-8" value="bourgeoisie_yields_pt" style="text;strokeColor=none;fillColor=none;align=left;verticalAlign=middle;spacingLeft=4;spacingRight=4;overflow=hidden;points=[[0,0.5],[1,0.5]];portConstraint=eastwest;rotatable=0;whiteSpace=wrap;html=1;fontFamily=Courier New;fontSize=11;fontColor=default;fontStyle=0;labelBackgroundColor=none;" vertex="1" parent="sh7tVW11IKmXvSeuLfNp-5">
          <mxGeometry y="60" width="240" height="30" as="geometry" />
        </mxCell>
        <mxCell id="sh7tVW11IKmXvSeuLfNp-20" value="top_lvl_admins[] " style="text;strokeColor=none;fillColor=none;align=left;verticalAlign=middle;spacingLeft=4;spacingRight=4;overflow=hidden;points=[[0,0.5],[1,0.5]];portConstraint=eastwest;rotatable=0;whiteSpace=wrap;html=1;fontFamily=Courier New;fontSize=11;fontColor=default;fontStyle=0;labelBackgroundColor=none;" vertex="1" parent="sh7tVW11IKmXvSeuLfNp-5">
          <mxGeometry y="90" width="240" height="30" as="geometry" />
        </mxCell>
        <mxCell id="sh7tVW11IKmXvSeuLfNp-21" value="bourgeoisie_yields_pt" style="text;strokeColor=none;fillColor=none;align=left;verticalAlign=middle;spacingLeft=4;spacingRight=4;overflow=hidden;points=[[0,0.5],[1,0.5]];portConstraint=eastwest;rotatable=0;whiteSpace=wrap;html=1;fontFamily=Courier New;fontSize=11;fontColor=default;fontStyle=0;labelBackgroundColor=none;" vertex="1" parent="sh7tVW11IKmXvSeuLfNp-5">
          <mxGeometry y="120" width="240" height="30" as="geometry" />
        </mxCell>
        <mxCell id="sh7tVW11IKmXvSeuLfNp-19" style="edgeStyle=elbowEdgeStyle;shape=connector;rounded=1;jumpStyle=arc;orthogonalLoop=1;jettySize=auto;elbow=horizontal;html=1;strokeColor=#990000;strokeWidth=2;align=center;verticalAlign=middle;fontFamily=Courier New;fontSize=11;fontColor=default;labelBackgroundColor=default;startArrow=baseDash;startFill=0;endArrow=classic;" edge="1" parent="k5VYn-M9ERcO1B340P1r-131" source="k5VYn-M9ERcO1B340P1r-129" target="sh7tVW11IKmXvSeuLfNp-5">
          <mxGeometry relative="1" as="geometry" />
        </mxCell>
        <mxCell id="k5VYn-M9ERcO1B340P1r-133" value="&lt;span&gt;World_t world&lt;/span&gt;" style="swimlane;whiteSpace=wrap;html=1;strokeColor=#b85450;align=center;verticalAlign=middle;swimlaneFillColor=none;fontFamily=Courier New;fontSize=11;fontColor=default;fontStyle=0;labelBackgroundColor=none;fillColor=#f8cecc;gradientColor=none;" parent="1" vertex="1">
          <mxGeometry x="-370" y="-70" width="470" height="890" as="geometry" />
        </mxCell>
        <mxCell id="k5VYn-M9ERcO1B340P1r-135" style="edgeStyle=elbowEdgeStyle;shape=connector;rounded=1;orthogonalLoop=1;jettySize=auto;elbow=horizontal;html=1;exitX=0.5;exitY=0;exitDx=0;exitDy=0;strokeColor=#990000;strokeWidth=2;align=center;verticalAlign=middle;fontFamily=Helvetica;fontSize=11;fontColor=default;labelBackgroundColor=default;endArrow=classic;" parent="k5VYn-M9ERcO1B340P1r-133" edge="1">
          <mxGeometry relative="1" as="geometry">
            <mxPoint x="210.98000000000002" y="510" as="sourcePoint" />
            <mxPoint x="210.8869767441861" y="510" as="targetPoint" />
          </mxGeometry>
        </mxCell>
        <mxCell id="k5VYn-M9ERcO1B340P1r-137" value="region_t *regions" style="swimlane;fontStyle=0;childLayout=stackLayout;horizontal=1;startSize=30;horizontalStack=0;resizeParent=1;resizeParentMax=0;resizeLast=0;collapsible=1;marginBottom=0;whiteSpace=wrap;html=1;fontFamily=Courier New;fontSize=11;labelBackgroundColor=none;fillColor=#f8cecc;strokeColor=#b85450;gradientColor=none;swimlaneFillColor=none;" parent="k5VYn-M9ERcO1B340P1r-133" vertex="1">
          <mxGeometry x="89.98" y="340" width="240" height="150" as="geometry" />
        </mxCell>
        <mxCell id="k5VYn-M9ERcO1B340P1r-138" value="admin_ptr" style="text;strokeColor=none;fillColor=none;align=left;verticalAlign=middle;spacingLeft=4;spacingRight=4;overflow=hidden;points=[[0,0.5],[1,0.5]];portConstraint=eastwest;rotatable=0;whiteSpace=wrap;html=1;fontFamily=Courier New;fontSize=11;fontColor=default;labelBackgroundColor=default;" parent="k5VYn-M9ERcO1B340P1r-137" vertex="1">
          <mxGeometry y="30" width="240" height="30" as="geometry" />
        </mxCell>
        <mxCell id="k5VYn-M9ERcO1B340P1r-139" value="&lt;font face=&quot;Courier New&quot;&gt;cell_ids[]&lt;/font&gt;" style="text;align=left;verticalAlign=middle;spacingLeft=4;spacingRight=4;overflow=hidden;points=[[0,0.5],[1,0.5]];portConstraint=eastwest;rotatable=0;whiteSpace=wrap;html=1;fontFamily=Courier New;fontSize=11;labelBackgroundColor=default;" parent="k5VYn-M9ERcO1B340P1r-137" vertex="1">
          <mxGeometry y="60" width="240" height="30" as="geometry" />
        </mxCell>
        <mxCell id="k5VYn-M9ERcO1B340P1r-140" value="baked_yields" style="text;strokeColor=none;fillColor=none;align=left;verticalAlign=middle;spacingLeft=4;spacingRight=4;overflow=hidden;points=[[0,0.5],[1,0.5]];portConstraint=eastwest;rotatable=0;whiteSpace=wrap;html=1;fontFamily=Courier New;fontSize=11;fontColor=default;labelBackgroundColor=default;" parent="k5VYn-M9ERcO1B340P1r-137" vertex="1">
          <mxGeometry y="90" width="240" height="30" as="geometry" />
        </mxCell>
        <mxCell id="k5VYn-M9ERcO1B340P1r-191" value="baked_b_yields" style="text;strokeColor=none;fillColor=none;align=left;verticalAlign=middle;spacingLeft=4;spacingRight=4;overflow=hidden;points=[[0,0.5],[1,0.5]];portConstraint=eastwest;rotatable=0;whiteSpace=wrap;html=1;fontFamily=Courier New;fontSize=11;fontColor=default;labelBackgroundColor=default;" parent="k5VYn-M9ERcO1B340P1r-137" vertex="1">
          <mxGeometry y="120" width="240" height="30" as="geometry" />
        </mxCell>
        <mxCell id="k5VYn-M9ERcO1B340P1r-141" value="cell_t *cells" style="swimlane;fontStyle=0;childLayout=stackLayout;horizontal=1;startSize=30;horizontalStack=0;resizeParent=1;resizeParentMax=0;resizeLast=0;collapsible=1;marginBottom=0;whiteSpace=wrap;html=1;fontFamily=Courier New;fontSize=11;labelBackgroundColor=none;fillColor=#f8cecc;strokeColor=#b85450;gradientColor=none;swimlaneFillColor=none;" parent="k5VYn-M9ERcO1B340P1r-133" vertex="1">
          <mxGeometry x="89.98" y="519" width="240" height="240" as="geometry" />
        </mxCell>
        <mxCell id="k5VYn-M9ERcO1B340P1r-142" value="region_id" style="text;align=left;verticalAlign=middle;spacingLeft=4;spacingRight=4;overflow=hidden;points=[[0,0.5],[1,0.5]];portConstraint=eastwest;rotatable=0;whiteSpace=wrap;html=1;fontFamily=Courier New;fontSize=11;labelBackgroundColor=default;" parent="k5VYn-M9ERcO1B340P1r-141" vertex="1">
          <mxGeometry y="30" width="240" height="30" as="geometry" />
        </mxCell>
        <mxCell id="k5VYn-M9ERcO1B340P1r-143" value="pop_lvl" style="text;strokeColor=none;fillColor=none;align=left;verticalAlign=middle;spacingLeft=4;spacingRight=4;overflow=hidden;points=[[0,0.5],[1,0.5]];portConstraint=eastwest;rotatable=0;whiteSpace=wrap;html=1;fontFamily=Courier New;fontSize=11;fontColor=default;labelBackgroundColor=default;" parent="k5VYn-M9ERcO1B340P1r-141" vertex="1">
          <mxGeometry y="60" width="240" height="30" as="geometry" />
        </mxCell>
        <mxCell id="k5VYn-M9ERcO1B340P1r-155" value="structure_ptr" style="text;strokeColor=none;fillColor=none;align=left;verticalAlign=middle;spacingLeft=4;spacingRight=4;overflow=hidden;points=[[0,0.5],[1,0.5]];portConstraint=eastwest;rotatable=0;whiteSpace=wrap;html=1;fontFamily=Courier New;fontSize=11;fontColor=default;labelBackgroundColor=default;" parent="k5VYn-M9ERcO1B340P1r-141" vertex="1">
          <mxGeometry y="90" width="240" height="30" as="geometry" />
        </mxCell>
        <mxCell id="k5VYn-M9ERcO1B340P1r-156" value="environment" style="text;strokeColor=none;fillColor=none;align=left;verticalAlign=middle;spacingLeft=4;spacingRight=4;overflow=hidden;points=[[0,0.5],[1,0.5]];portConstraint=eastwest;rotatable=0;whiteSpace=wrap;html=1;fontFamily=Courier New;fontSize=11;fontColor=default;labelBackgroundColor=default;" parent="k5VYn-M9ERcO1B340P1r-141" vertex="1">
          <mxGeometry y="120" width="240" height="30" as="geometry" />
        </mxCell>
        <mxCell id="k5VYn-M9ERcO1B340P1r-157" value="resource" style="text;strokeColor=none;fillColor=none;align=left;verticalAlign=middle;spacingLeft=4;spacingRight=4;overflow=hidden;points=[[0,0.5],[1,0.5]];portConstraint=eastwest;rotatable=0;whiteSpace=wrap;html=1;fontFamily=Courier New;fontSize=11;fontColor=default;labelBackgroundColor=default;" parent="k5VYn-M9ERcO1B340P1r-141" vertex="1">
          <mxGeometry y="150" width="240" height="30" as="geometry" />
        </mxCell>
        <mxCell id="k5VYn-M9ERcO1B340P1r-158" value="baked_yields" style="text;strokeColor=none;fillColor=none;align=left;verticalAlign=middle;spacingLeft=4;spacingRight=4;overflow=hidden;points=[[0,0.5],[1,0.5]];portConstraint=eastwest;rotatable=0;whiteSpace=wrap;html=1;fontFamily=Courier New;fontSize=11;fontColor=default;labelBackgroundColor=default;" parent="k5VYn-M9ERcO1B340P1r-141" vertex="1">
          <mxGeometry y="180" width="240" height="30" as="geometry" />
        </mxCell>
        <mxCell id="k5VYn-M9ERcO1B340P1r-192" value="ownership" style="text;strokeColor=none;fillColor=none;align=left;verticalAlign=middle;spacingLeft=4;spacingRight=4;overflow=hidden;points=[[0,0.5],[1,0.5]];portConstraint=eastwest;rotatable=0;whiteSpace=wrap;html=1;fontFamily=Courier New;fontSize=11;fontColor=default;labelBackgroundColor=default;" parent="k5VYn-M9ERcO1B340P1r-141" vertex="1">
          <mxGeometry y="210" width="240" height="30" as="geometry" />
        </mxCell>
        <mxCell id="k5VYn-M9ERcO1B340P1r-144" value="administration_t *admins" style="swimlane;fontStyle=0;childLayout=stackLayout;horizontal=1;startSize=30;horizontalStack=0;resizeParent=1;resizeParentMax=0;resizeLast=0;collapsible=1;marginBottom=0;whiteSpace=wrap;html=1;fontFamily=Courier New;fontSize=11;labelBackgroundColor=none;fillColor=#f8cecc;strokeColor=#b85450;gradientColor=none;swimlaneFillColor=none;" parent="k5VYn-M9ERcO1B340P1r-133" vertex="1">
          <mxGeometry x="79.99000000000001" y="40" width="240" height="240" as="geometry" />
        </mxCell>
        <mxCell id="k5VYn-M9ERcO1B340P1r-145" value="parent_ptr" style="text;strokeColor=none;fillColor=none;align=left;verticalAlign=middle;spacingLeft=4;spacingRight=4;overflow=hidden;points=[[0,0.5],[1,0.5]];portConstraint=eastwest;rotatable=0;whiteSpace=wrap;html=1;fontFamily=Courier New;fontSize=11;fontColor=default;labelBackgroundColor=default;" parent="k5VYn-M9ERcO1B340P1r-144" vertex="1">
          <mxGeometry y="30" width="240" height="30" as="geometry" />
        </mxCell>
        <mxCell id="k5VYn-M9ERcO1B340P1r-146" value="&lt;font face=&quot;Courier New&quot;&gt;child_admins[]&lt;/font&gt;" style="text;align=left;verticalAlign=middle;spacingLeft=4;spacingRight=4;overflow=hidden;points=[[0,0.5],[1,0.5]];portConstraint=eastwest;rotatable=0;whiteSpace=wrap;html=1;fontFamily=Courier New;fontSize=11;labelBackgroundColor=default;" parent="k5VYn-M9ERcO1B340P1r-144" vertex="1">
          <mxGeometry y="60" width="240" height="30" as="geometry" />
        </mxCell>
        <mxCell id="k5VYn-M9ERcO1B340P1r-147" style="edgeStyle=elbowEdgeStyle;shape=connector;rounded=1;orthogonalLoop=1;jettySize=auto;elbow=horizontal;html=1;exitX=0;exitY=0.5;exitDx=0;exitDy=0;strokeColor=#990000;strokeWidth=2;align=center;verticalAlign=middle;fontFamily=Courier New;fontSize=11;fontColor=default;labelBackgroundColor=default;endArrow=classic;jumpStyle=arc;startArrow=baseDash;startFill=0;" parent="k5VYn-M9ERcO1B340P1r-144" source="k5VYn-M9ERcO1B340P1r-145" edge="1">
          <mxGeometry relative="1" as="geometry">
            <mxPoint y="10" as="targetPoint" />
            <Array as="points">
              <mxPoint x="-40" y="40" />
            </Array>
          </mxGeometry>
        </mxCell>
        <mxCell id="k5VYn-M9ERcO1B340P1r-148" style="edgeStyle=elbowEdgeStyle;shape=connector;rounded=1;orthogonalLoop=1;jettySize=auto;elbow=horizontal;html=1;exitX=0;exitY=0.5;exitDx=0;exitDy=0;strokeColor=#990000;strokeWidth=2;align=center;verticalAlign=middle;fontFamily=Courier New;fontSize=11;fontColor=default;labelBackgroundColor=default;endArrow=classic;jumpStyle=arc;startArrow=baseDash;startFill=0;" parent="k5VYn-M9ERcO1B340P1r-144" source="k5VYn-M9ERcO1B340P1r-146" edge="1">
          <mxGeometry relative="1" as="geometry">
            <mxPoint y="10" as="targetPoint" />
            <Array as="points">
              <mxPoint x="-40" y="60" />
            </Array>
          </mxGeometry>
        </mxCell>
        <mxCell id="k5VYn-M9ERcO1B340P1r-150" value="region_ids[]" style="text;strokeColor=none;fillColor=none;align=left;verticalAlign=middle;spacingLeft=4;spacingRight=4;overflow=hidden;points=[[0,0.5],[1,0.5]];portConstraint=eastwest;rotatable=0;whiteSpace=wrap;html=1;fontFamily=Courier New;fontSize=11;fontColor=default;labelBackgroundColor=default;" parent="k5VYn-M9ERcO1B340P1r-144" vertex="1">
          <mxGeometry y="90" width="240" height="30" as="geometry" />
        </mxCell>
        <mxCell id="k5VYn-M9ERcO1B340P1r-151" value="yields_pt" style="text;strokeColor=none;fillColor=none;align=left;verticalAlign=middle;spacingLeft=4;spacingRight=4;overflow=hidden;points=[[0,0.5],[1,0.5]];portConstraint=eastwest;rotatable=0;whiteSpace=wrap;html=1;fontFamily=Courier New;fontSize=11;fontColor=default;labelBackgroundColor=default;" parent="k5VYn-M9ERcO1B340P1r-144" vertex="1">
          <mxGeometry y="120" width="240" height="30" as="geometry" />
        </mxCell>
        <mxCell id="k5VYn-M9ERcO1B340P1r-173" value="parent_extraction_%" style="text;strokeColor=none;fillColor=none;align=left;verticalAlign=middle;spacingLeft=4;spacingRight=4;overflow=hidden;points=[[0,0.5],[1,0.5]];portConstraint=eastwest;rotatable=0;whiteSpace=wrap;html=1;fontFamily=Courier New;fontSize=11;fontColor=default;labelBackgroundColor=default;" parent="k5VYn-M9ERcO1B340P1r-144" vertex="1">
          <mxGeometry y="150" width="240" height="30" as="geometry" />
        </mxCell>
        <mxCell id="k5VYn-M9ERcO1B340P1r-203" value="capital_tax_%" style="text;strokeColor=none;fillColor=none;align=left;verticalAlign=middle;spacingLeft=4;spacingRight=4;overflow=hidden;points=[[0,0.5],[1,0.5]];portConstraint=eastwest;rotatable=0;whiteSpace=wrap;html=1;fontFamily=Courier New;fontSize=11;fontColor=default;labelBackgroundColor=default;" parent="k5VYn-M9ERcO1B340P1r-144" vertex="1">
          <mxGeometry y="180" width="240" height="30" as="geometry" />
        </mxCell>
        <mxCell id="k5VYn-M9ERcO1B340P1r-190" value="bourgeoisie_yields" style="text;strokeColor=none;fillColor=none;align=left;verticalAlign=middle;spacingLeft=4;spacingRight=4;overflow=hidden;points=[[0,0.5],[1,0.5]];portConstraint=eastwest;rotatable=0;whiteSpace=wrap;html=1;fontFamily=Courier New;fontSize=11;fontColor=default;labelBackgroundColor=default;" parent="k5VYn-M9ERcO1B340P1r-144" vertex="1">
          <mxGeometry y="210" width="240" height="30" as="geometry" />
        </mxCell>
        <mxCell id="k5VYn-M9ERcO1B340P1r-161" value="" style="strokeWidth=2;html=1;shape=mxgraph.flowchart.annotation_1;align=left;pointerEvents=1;rounded=0;verticalAlign=top;fontFamily=Courier New;fontSize=11;fontStyle=0;labelBackgroundColor=none;fillColor=#f8cecc;strokeColor=#b85450;" parent="k5VYn-M9ERcO1B340P1r-133" vertex="1">
          <mxGeometry x="69.99" y="709" width="20" height="10" as="geometry" />
        </mxCell>
        <mxCell id="k5VYn-M9ERcO1B340P1r-162" style="edgeStyle=elbowEdgeStyle;shape=connector;rounded=1;jumpStyle=arc;orthogonalLoop=1;jettySize=auto;elbow=horizontal;html=1;exitX=0;exitY=0.5;exitDx=0;exitDy=0;entryX=0;entryY=0.5;entryDx=0;entryDy=0;entryPerimeter=0;strokeColor=#990000;strokeWidth=2;align=center;verticalAlign=middle;fontFamily=Courier New;fontSize=11;fontColor=default;fontStyle=0;labelBackgroundColor=none;startArrow=baseDash;startFill=0;endArrow=classic;" parent="k5VYn-M9ERcO1B340P1r-133" source="k5VYn-M9ERcO1B340P1r-157" target="k5VYn-M9ERcO1B340P1r-161" edge="1">
          <mxGeometry relative="1" as="geometry">
            <Array as="points">
              <mxPoint x="49.99" y="699" />
            </Array>
          </mxGeometry>
        </mxCell>
        <mxCell id="k5VYn-M9ERcO1B340P1r-169" value="+" style="edgeLabel;html=1;align=center;verticalAlign=middle;resizable=0;points=[];rounded=0;fontFamily=Courier New;fontSize=11;fontColor=default;fontStyle=0;labelBackgroundColor=none;fillColor=none;gradientColor=none;" parent="k5VYn-M9ERcO1B340P1r-162" vertex="1" connectable="0">
          <mxGeometry x="-0.3779" y="-1" relative="1" as="geometry">
            <mxPoint y="-4" as="offset" />
          </mxGeometry>
        </mxCell>
        <mxCell id="k5VYn-M9ERcO1B340P1r-163" style="edgeStyle=elbowEdgeStyle;shape=connector;rounded=1;jumpStyle=arc;orthogonalLoop=1;jettySize=auto;elbow=horizontal;html=1;exitX=0;exitY=0.5;exitDx=0;exitDy=0;entryX=0;entryY=0.5;entryDx=0;entryDy=0;entryPerimeter=0;strokeColor=#990000;strokeWidth=2;align=center;verticalAlign=middle;fontFamily=Courier New;fontSize=11;fontColor=default;fontStyle=0;labelBackgroundColor=none;startArrow=baseDash;startFill=0;endArrow=classic;" parent="k5VYn-M9ERcO1B340P1r-133" source="k5VYn-M9ERcO1B340P1r-156" target="k5VYn-M9ERcO1B340P1r-161" edge="1">
          <mxGeometry relative="1" as="geometry">
            <Array as="points">
              <mxPoint x="39.99" y="689" />
            </Array>
          </mxGeometry>
        </mxCell>
        <mxCell id="k5VYn-M9ERcO1B340P1r-168" value="+" style="edgeLabel;html=1;align=center;verticalAlign=middle;resizable=0;points=[];rounded=0;fontFamily=Courier New;fontSize=11;fontColor=default;fontStyle=0;labelBackgroundColor=none;fillColor=none;gradientColor=none;" parent="k5VYn-M9ERcO1B340P1r-163" vertex="1" connectable="0">
          <mxGeometry x="-0.5455" y="-1" relative="1" as="geometry">
            <mxPoint y="-4" as="offset" />
          </mxGeometry>
        </mxCell>
        <mxCell id="k5VYn-M9ERcO1B340P1r-164" style="edgeStyle=elbowEdgeStyle;shape=connector;rounded=1;jumpStyle=arc;orthogonalLoop=1;jettySize=auto;elbow=horizontal;html=1;exitX=0;exitY=0.5;exitDx=0;exitDy=0;entryX=0;entryY=0.5;entryDx=0;entryDy=0;entryPerimeter=0;strokeColor=#990000;strokeWidth=2;align=center;verticalAlign=middle;fontFamily=Courier New;fontSize=11;fontColor=default;fontStyle=0;labelBackgroundColor=none;startArrow=baseDash;startFill=0;endArrow=classic;" parent="k5VYn-M9ERcO1B340P1r-133" source="k5VYn-M9ERcO1B340P1r-155" target="k5VYn-M9ERcO1B340P1r-161" edge="1">
          <mxGeometry relative="1" as="geometry">
            <Array as="points">
              <mxPoint x="29.990000000000002" y="669" />
            </Array>
          </mxGeometry>
        </mxCell>
        <mxCell id="k5VYn-M9ERcO1B340P1r-167" value="+" style="edgeLabel;html=1;align=center;verticalAlign=middle;resizable=0;points=[];rounded=0;fontFamily=Courier New;fontSize=11;fontColor=default;fontStyle=0;labelBackgroundColor=none;fillColor=none;gradientColor=none;" parent="k5VYn-M9ERcO1B340P1r-164" vertex="1" connectable="0">
          <mxGeometry x="-0.4989" y="1" relative="1" as="geometry">
            <mxPoint x="8" y="-6" as="offset" />
          </mxGeometry>
        </mxCell>
        <mxCell id="k5VYn-M9ERcO1B340P1r-165" style="edgeStyle=elbowEdgeStyle;shape=connector;rounded=1;jumpStyle=arc;orthogonalLoop=1;jettySize=auto;elbow=horizontal;html=1;exitX=0;exitY=0.5;exitDx=0;exitDy=0;entryX=0.5;entryY=0;entryDx=0;entryDy=0;entryPerimeter=0;strokeColor=#990000;strokeWidth=2;align=center;verticalAlign=middle;fontFamily=Courier New;fontSize=11;fontColor=default;fontStyle=0;labelBackgroundColor=none;startArrow=baseDash;startFill=0;endArrow=classic;" parent="k5VYn-M9ERcO1B340P1r-133" source="k5VYn-M9ERcO1B340P1r-143" target="k5VYn-M9ERcO1B340P1r-161" edge="1">
          <mxGeometry relative="1" as="geometry">
            <Array as="points">
              <mxPoint x="79.99" y="649" />
            </Array>
          </mxGeometry>
        </mxCell>
        <mxCell id="k5VYn-M9ERcO1B340P1r-170" value="x" style="edgeLabel;html=1;align=center;verticalAlign=middle;resizable=0;points=[];rounded=0;fontFamily=Courier New;fontSize=11;fontColor=default;fontStyle=0;labelBackgroundColor=none;fillColor=none;gradientColor=none;" parent="k5VYn-M9ERcO1B340P1r-165" vertex="1" connectable="0">
          <mxGeometry x="-0.6505" relative="1" as="geometry">
            <mxPoint x="-10" y="-12" as="offset" />
          </mxGeometry>
        </mxCell>
        <mxCell id="k5VYn-M9ERcO1B340P1r-171" style="edgeStyle=elbowEdgeStyle;shape=connector;rounded=1;jumpStyle=arc;orthogonalLoop=1;jettySize=auto;elbow=horizontal;html=1;exitX=1;exitY=0.5;exitDx=0;exitDy=0;strokeColor=#990000;strokeWidth=2;align=center;verticalAlign=middle;fontFamily=Courier New;fontSize=11;fontColor=default;fontStyle=0;labelBackgroundColor=none;startArrow=baseDash;startFill=0;endArrow=classic;entryX=0.5;entryY=1;entryDx=0;entryDy=0;" parent="k5VYn-M9ERcO1B340P1r-133" source="k5VYn-M9ERcO1B340P1r-158" target="k5VYn-M9ERcO1B340P1r-197" edge="1">
          <mxGeometry relative="1" as="geometry">
            <mxPoint x="430" y="530" as="targetPoint" />
            <Array as="points">
              <mxPoint x="365" y="610" />
            </Array>
          </mxGeometry>
        </mxCell>
        <mxCell id="k5VYn-M9ERcO1B340P1r-172" value="+" style="edgeLabel;html=1;align=center;verticalAlign=middle;resizable=0;points=[];rounded=0;fontFamily=Courier New;fontSize=11;fontColor=default;fontStyle=0;labelBackgroundColor=none;fillColor=none;gradientColor=none;" parent="k5VYn-M9ERcO1B340P1r-171" vertex="1" connectable="0">
          <mxGeometry x="-0.3646" relative="1" as="geometry">
            <mxPoint x="10" y="3" as="offset" />
          </mxGeometry>
        </mxCell>
        <mxCell id="k5VYn-M9ERcO1B340P1r-174" style="edgeStyle=elbowEdgeStyle;shape=connector;rounded=1;jumpStyle=arc;orthogonalLoop=1;jettySize=auto;elbow=horizontal;html=1;exitX=0;exitY=0.5;exitDx=0;exitDy=0;entryX=0.5;entryY=1;entryDx=0;entryDy=0;strokeColor=#990000;strokeWidth=2;align=center;verticalAlign=middle;fontFamily=Courier New;fontSize=11;fontColor=default;fontStyle=0;labelBackgroundColor=none;startArrow=baseDash;startFill=0;endArrow=classic;" parent="k5VYn-M9ERcO1B340P1r-133" source="k5VYn-M9ERcO1B340P1r-140" target="k5VYn-M9ERcO1B340P1r-209" edge="1">
          <mxGeometry relative="1" as="geometry">
            <Array as="points">
              <mxPoint x="20" y="300" />
            </Array>
          </mxGeometry>
        </mxCell>
        <mxCell id="k5VYn-M9ERcO1B340P1r-175" value="+" style="edgeLabel;html=1;align=center;verticalAlign=middle;resizable=0;points=[];rounded=0;fontFamily=Courier New;fontSize=11;fontColor=default;fontStyle=0;labelBackgroundColor=none;fillColor=none;gradientColor=none;" parent="k5VYn-M9ERcO1B340P1r-174" vertex="1" connectable="0">
          <mxGeometry x="0.3614" relative="1" as="geometry">
            <mxPoint x="50" y="187" as="offset" />
          </mxGeometry>
        </mxCell>
        <mxCell id="k5VYn-M9ERcO1B340P1r-179" style="edgeStyle=elbowEdgeStyle;shape=connector;rounded=1;jumpStyle=arc;orthogonalLoop=1;jettySize=auto;elbow=horizontal;html=1;exitX=0.5;exitY=0;exitDx=0;exitDy=0;entryX=1;entryY=0.25;entryDx=0;entryDy=0;strokeColor=#990000;strokeWidth=2;align=center;verticalAlign=middle;fontFamily=Courier New;fontSize=11;fontColor=default;fontStyle=0;labelBackgroundColor=none;startArrow=baseDash;startFill=0;endArrow=classic;" parent="k5VYn-M9ERcO1B340P1r-133" source="k5VYn-M9ERcO1B340P1r-176" target="k5VYn-M9ERcO1B340P1r-144" edge="1">
          <mxGeometry relative="1" as="geometry">
            <Array as="points">
              <mxPoint x="410" y="130" />
            </Array>
          </mxGeometry>
        </mxCell>
        <mxCell id="k5VYn-M9ERcO1B340P1r-186" value="yield x ex_%" style="edgeLabel;html=1;align=center;verticalAlign=middle;resizable=0;points=[];rounded=0;fontFamily=Courier New;fontSize=11;fontColor=default;fontStyle=0;labelBackgroundColor=none;fillColor=none;gradientColor=none;" parent="k5VYn-M9ERcO1B340P1r-179" vertex="1" connectable="0">
          <mxGeometry x="-0.6438" relative="1" as="geometry">
            <mxPoint y="10" as="offset" />
          </mxGeometry>
        </mxCell>
        <mxCell id="k5VYn-M9ERcO1B340P1r-176" value="%" style="ellipse;whiteSpace=wrap;html=1;aspect=fixed;rounded=0;align=left;verticalAlign=top;fontFamily=Courier New;fontSize=11;fontStyle=0;labelBackgroundColor=none;fillColor=#f8cecc;strokeColor=#b85450;" parent="k5VYn-M9ERcO1B340P1r-133" vertex="1">
          <mxGeometry x="400" y="165" width="20" height="20" as="geometry" />
        </mxCell>
        <mxCell id="k5VYn-M9ERcO1B340P1r-177" style="edgeStyle=elbowEdgeStyle;shape=connector;rounded=1;jumpStyle=arc;orthogonalLoop=1;jettySize=auto;elbow=horizontal;html=1;exitX=1;exitY=0.5;exitDx=0;exitDy=0;entryX=0;entryY=0.5;entryDx=0;entryDy=0;strokeColor=#990000;strokeWidth=2;align=center;verticalAlign=middle;fontFamily=Courier New;fontSize=11;fontColor=default;fontStyle=0;labelBackgroundColor=none;startArrow=classic;startFill=1;endArrow=classic;" parent="k5VYn-M9ERcO1B340P1r-133" source="k5VYn-M9ERcO1B340P1r-151" target="k5VYn-M9ERcO1B340P1r-176" edge="1">
          <mxGeometry relative="1" as="geometry" />
        </mxCell>
        <mxCell id="k5VYn-M9ERcO1B340P1r-183" value="+" style="edgeLabel;html=1;align=center;verticalAlign=middle;resizable=0;points=[];rounded=0;fontFamily=Courier New;fontSize=11;fontColor=default;fontStyle=0;labelBackgroundColor=none;fillColor=none;gradientColor=none;" parent="k5VYn-M9ERcO1B340P1r-177" vertex="1" connectable="0">
          <mxGeometry x="-0.5859" y="-1" relative="1" as="geometry">
            <mxPoint x="43" y="-16" as="offset" />
          </mxGeometry>
        </mxCell>
        <mxCell id="k5VYn-M9ERcO1B340P1r-185" value="-" style="edgeLabel;html=1;align=center;verticalAlign=middle;resizable=0;points=[];rounded=0;fontFamily=Courier New;fontSize=11;fontColor=default;fontStyle=0;labelBackgroundColor=none;fillColor=none;gradientColor=none;" parent="k5VYn-M9ERcO1B340P1r-177" vertex="1" connectable="0">
          <mxGeometry x="-0.5304" relative="1" as="geometry">
            <mxPoint y="-15" as="offset" />
          </mxGeometry>
        </mxCell>
        <mxCell id="k5VYn-M9ERcO1B340P1r-178" value="*" style="edgeStyle=elbowEdgeStyle;shape=connector;rounded=1;jumpStyle=arc;orthogonalLoop=1;jettySize=auto;elbow=horizontal;html=1;exitX=1;exitY=0.5;exitDx=0;exitDy=0;entryX=0.5;entryY=1;entryDx=0;entryDy=0;strokeColor=#990000;strokeWidth=2;align=center;verticalAlign=middle;fontFamily=Courier New;fontSize=11;fontColor=default;fontStyle=0;labelBackgroundColor=none;startArrow=baseDash;startFill=0;endArrow=classic;" parent="k5VYn-M9ERcO1B340P1r-133" source="k5VYn-M9ERcO1B340P1r-173" target="k5VYn-M9ERcO1B340P1r-176" edge="1">
          <mxGeometry x="-0.6362" y="5" relative="1" as="geometry">
            <Array as="points">
              <mxPoint x="410" y="190" />
            </Array>
            <mxPoint as="offset" />
          </mxGeometry>
        </mxCell>
        <mxCell id="k5VYn-M9ERcO1B340P1r-200" style="edgeStyle=elbowEdgeStyle;shape=connector;rounded=1;jumpStyle=arc;orthogonalLoop=1;jettySize=auto;elbow=horizontal;html=1;entryX=1;entryY=0.5;entryDx=0;entryDy=0;strokeColor=#990000;strokeWidth=2;align=center;verticalAlign=middle;fontFamily=Courier New;fontSize=11;fontColor=default;fontStyle=0;labelBackgroundColor=none;startArrow=baseDash;startFill=0;endArrow=classic;" parent="k5VYn-M9ERcO1B340P1r-133" source="k5VYn-M9ERcO1B340P1r-197" target="k5VYn-M9ERcO1B340P1r-191" edge="1">
          <mxGeometry relative="1" as="geometry" />
        </mxCell>
        <mxCell id="k5VYn-M9ERcO1B340P1r-197" value="Brg" style="whiteSpace=wrap;html=1;aspect=fixed;rounded=0;align=left;verticalAlign=top;fontFamily=Courier New;fontSize=11;fontColor=default;fontStyle=0;labelBackgroundColor=none;fillColor=none;gradientColor=none;" parent="k5VYn-M9ERcO1B340P1r-133" vertex="1">
          <mxGeometry x="350" y="460" width="30" height="30" as="geometry" />
        </mxCell>
        <mxCell id="k5VYn-M9ERcO1B340P1r-199" style="edgeStyle=elbowEdgeStyle;shape=connector;rounded=1;jumpStyle=arc;orthogonalLoop=1;jettySize=auto;elbow=horizontal;html=1;entryX=1;entryY=0.5;entryDx=0;entryDy=0;strokeColor=#990000;strokeWidth=2;align=center;verticalAlign=middle;fontFamily=Courier New;fontSize=11;fontColor=default;fontStyle=0;labelBackgroundColor=none;startArrow=baseDash;startFill=0;endArrow=classic;" parent="k5VYn-M9ERcO1B340P1r-133" source="k5VYn-M9ERcO1B340P1r-198" target="k5VYn-M9ERcO1B340P1r-140" edge="1">
          <mxGeometry relative="1" as="geometry" />
        </mxCell>
        <mxCell id="k5VYn-M9ERcO1B340P1r-198" value="&lt;font style=&quot;font-size: 9px;&quot;&gt;State&lt;/font&gt;" style="whiteSpace=wrap;html=1;aspect=fixed;rounded=0;align=left;verticalAlign=top;fontFamily=Courier New;fontSize=11;fontColor=default;fontStyle=0;labelBackgroundColor=none;fillColor=none;gradientColor=none;" parent="k5VYn-M9ERcO1B340P1r-133" vertex="1">
          <mxGeometry x="350" y="430" width="30" height="30" as="geometry" />
        </mxCell>
        <mxCell id="k5VYn-M9ERcO1B340P1r-201" style="edgeStyle=elbowEdgeStyle;shape=connector;rounded=1;jumpStyle=arc;orthogonalLoop=1;jettySize=auto;elbow=horizontal;html=1;exitX=1;exitY=0.5;exitDx=0;exitDy=0;entryX=1;entryY=0;entryDx=0;entryDy=0;strokeColor=#990000;strokeWidth=2;align=center;verticalAlign=middle;fontFamily=Courier New;fontSize=11;fontColor=default;fontStyle=0;labelBackgroundColor=none;startArrow=baseDash;startFill=0;endArrow=classic;" parent="k5VYn-M9ERcO1B340P1r-133" source="k5VYn-M9ERcO1B340P1r-192" target="k5VYn-M9ERcO1B340P1r-197" edge="1">
          <mxGeometry relative="1" as="geometry">
            <Array as="points">
              <mxPoint x="410" y="600" />
            </Array>
          </mxGeometry>
        </mxCell>
        <mxCell id="k5VYn-M9ERcO1B340P1r-202" style="edgeStyle=elbowEdgeStyle;shape=connector;rounded=1;jumpStyle=arc;orthogonalLoop=1;jettySize=auto;elbow=horizontal;html=1;entryX=0;entryY=0.5;entryDx=0;entryDy=0;strokeColor=#990000;strokeWidth=2;align=center;verticalAlign=middle;fontFamily=Courier New;fontSize=11;fontColor=default;fontStyle=0;labelBackgroundColor=none;startArrow=baseDash;startFill=0;endArrow=classic;" parent="k5VYn-M9ERcO1B340P1r-133" source="k5VYn-M9ERcO1B340P1r-191" target="k5VYn-M9ERcO1B340P1r-190" edge="1">
          <mxGeometry relative="1" as="geometry">
            <Array as="points">
              <mxPoint x="50" y="370" />
            </Array>
          </mxGeometry>
        </mxCell>
        <mxCell id="k5VYn-M9ERcO1B340P1r-206" style="edgeStyle=elbowEdgeStyle;shape=connector;rounded=1;jumpStyle=arc;orthogonalLoop=1;jettySize=auto;elbow=horizontal;html=1;entryX=1;entryY=0.5;entryDx=0;entryDy=0;strokeColor=#990000;strokeWidth=2;align=center;verticalAlign=middle;fontFamily=Courier New;fontSize=11;fontColor=default;fontStyle=0;labelBackgroundColor=none;startArrow=baseDash;startFill=0;endArrow=classic;" parent="k5VYn-M9ERcO1B340P1r-133" source="k5VYn-M9ERcO1B340P1r-205" target="k5VYn-M9ERcO1B340P1r-145" edge="1">
          <mxGeometry relative="1" as="geometry">
            <Array as="points">
              <mxPoint x="460" y="170" />
            </Array>
          </mxGeometry>
        </mxCell>
        <mxCell id="k5VYn-M9ERcO1B340P1r-208" style="edgeStyle=elbowEdgeStyle;shape=connector;rounded=1;jumpStyle=arc;orthogonalLoop=1;jettySize=auto;elbow=horizontal;html=1;exitX=0.5;exitY=1;exitDx=0;exitDy=0;strokeColor=#990000;strokeWidth=2;align=center;verticalAlign=middle;fontFamily=Courier New;fontSize=11;fontColor=default;fontStyle=0;labelBackgroundColor=none;startArrow=baseDash;startFill=0;endArrow=classic;entryX=1;entryY=0.5;entryDx=0;entryDy=0;" parent="k5VYn-M9ERcO1B340P1r-133" source="k5VYn-M9ERcO1B340P1r-205" target="k5VYn-M9ERcO1B340P1r-209" edge="1">
          <mxGeometry relative="1" as="geometry">
            <mxPoint x="20" y="310" as="targetPoint" />
            <Array as="points">
              <mxPoint x="430" y="300" />
            </Array>
          </mxGeometry>
        </mxCell>
        <mxCell id="k5VYn-M9ERcO1B340P1r-205" value="%" style="ellipse;whiteSpace=wrap;html=1;aspect=fixed;rounded=0;align=left;verticalAlign=top;fontFamily=Courier New;fontSize=11;fontStyle=0;labelBackgroundColor=none;fillColor=#f8cecc;strokeColor=#b85450;" parent="k5VYn-M9ERcO1B340P1r-133" vertex="1">
          <mxGeometry x="420" y="255" width="20" height="20" as="geometry" />
        </mxCell>
        <mxCell id="k5VYn-M9ERcO1B340P1r-204" style="edgeStyle=elbowEdgeStyle;shape=connector;rounded=1;jumpStyle=arc;orthogonalLoop=1;jettySize=auto;elbow=horizontal;html=1;exitX=1;exitY=0.5;exitDx=0;exitDy=0;strokeColor=#990000;strokeWidth=2;align=center;verticalAlign=middle;fontFamily=Courier New;fontSize=11;fontColor=default;fontStyle=0;labelBackgroundColor=none;startArrow=baseDash;startFill=0;endArrow=classic;entryX=0;entryY=0.5;entryDx=0;entryDy=0;" parent="k5VYn-M9ERcO1B340P1r-133" source="k5VYn-M9ERcO1B340P1r-190" target="k5VYn-M9ERcO1B340P1r-205" edge="1">
          <mxGeometry relative="1" as="geometry">
            <mxPoint x="390" y="264.44444444444446" as="targetPoint" />
          </mxGeometry>
        </mxCell>
        <mxCell id="k5VYn-M9ERcO1B340P1r-207" style="edgeStyle=elbowEdgeStyle;shape=connector;rounded=1;jumpStyle=arc;orthogonalLoop=1;jettySize=auto;elbow=horizontal;html=1;entryX=0.5;entryY=0;entryDx=0;entryDy=0;strokeColor=#990000;strokeWidth=2;align=center;verticalAlign=middle;fontFamily=Courier New;fontSize=11;fontColor=default;fontStyle=0;labelBackgroundColor=none;startArrow=baseDash;startFill=0;endArrow=classic;" parent="k5VYn-M9ERcO1B340P1r-133" source="k5VYn-M9ERcO1B340P1r-203" target="k5VYn-M9ERcO1B340P1r-205" edge="1">
          <mxGeometry relative="1" as="geometry">
            <Array as="points">
              <mxPoint x="430" y="240" />
            </Array>
          </mxGeometry>
        </mxCell>
        <mxCell id="k5VYn-M9ERcO1B340P1r-210" style="edgeStyle=elbowEdgeStyle;shape=connector;rounded=1;jumpStyle=arc;orthogonalLoop=1;jettySize=auto;elbow=horizontal;html=1;entryX=0;entryY=0.5;entryDx=0;entryDy=0;strokeColor=#990000;strokeWidth=2;align=center;verticalAlign=middle;fontFamily=Courier New;fontSize=11;fontColor=default;fontStyle=0;labelBackgroundColor=none;startArrow=baseDash;startFill=0;endArrow=classic;" parent="k5VYn-M9ERcO1B340P1r-133" source="k5VYn-M9ERcO1B340P1r-209" target="k5VYn-M9ERcO1B340P1r-151" edge="1">
          <mxGeometry relative="1" as="geometry">
            <Array as="points">
              <mxPoint x="20" y="240" />
            </Array>
          </mxGeometry>
        </mxCell>
        <mxCell id="k5VYn-M9ERcO1B340P1r-209" value="+" style="ellipse;whiteSpace=wrap;html=1;aspect=fixed;rounded=0;align=left;verticalAlign=top;fontFamily=Courier New;fontSize=11;fontStyle=0;labelBackgroundColor=none;fillColor=#f8cecc;strokeColor=#b85450;" parent="k5VYn-M9ERcO1B340P1r-133" vertex="1">
          <mxGeometry x="10" y="300" width="20" height="20" as="geometry" />
        </mxCell>
        <mxCell id="k5VYn-M9ERcO1B340P1r-153" value="&lt;h1 style=&quot;margin-top: 0px;&quot;&gt;Tasks&lt;/h1&gt;&lt;p&gt;&lt;font style=&quot;font-size: 16px;&quot;&gt;1: Bake cell yields&lt;/font&gt;&lt;/p&gt;&lt;p&gt;&lt;font style=&quot;font-size: 16px;&quot;&gt;2: Bake region yields&lt;/font&gt;&lt;/p&gt;&lt;p&gt;&lt;font style=&quot;font-size: 16px;&quot;&gt;3: Extraction&lt;/font&gt;&lt;/p&gt;" style="text;html=1;whiteSpace=wrap;overflow=hidden;rounded=0;fontFamily=Courier New;fontSize=11;fontColor=default;fontStyle=0;labelBackgroundColor=none;" parent="1" vertex="1">
          <mxGeometry x="-250" y="-230" width="210" height="200" as="geometry" />
        </mxCell>
        <mxCell id="k5VYn-M9ERcO1B340P1r-187" value="" style="strokeWidth=2;html=1;shape=mxgraph.flowchart.annotation_1;align=left;pointerEvents=1;rounded=0;verticalAlign=top;fontFamily=Courier New;fontSize=11;fontColor=default;fontStyle=0;labelBackgroundColor=none;fillColor=none;gradientColor=none;" parent="1" vertex="1">
          <mxGeometry x="-420" y="510" width="50" height="150" as="geometry" />
        </mxCell>
        <mxCell id="k5VYn-M9ERcO1B340P1r-188" value="" style="strokeWidth=2;html=1;shape=mxgraph.flowchart.annotation_1;align=left;pointerEvents=1;rounded=0;verticalAlign=top;fontFamily=Courier New;fontSize=11;fontColor=default;fontStyle=0;labelBackgroundColor=none;fillColor=none;gradientColor=none;direction=west;" parent="1" vertex="1">
          <mxGeometry x="100" y="290" width="50" height="370" as="geometry" />
        </mxCell>
        <mxCell id="k5VYn-M9ERcO1B340P1r-189" value="" style="strokeWidth=2;html=1;shape=mxgraph.flowchart.annotation_1;align=left;pointerEvents=1;rounded=0;verticalAlign=top;fontFamily=Courier New;fontSize=11;fontColor=default;fontStyle=0;labelBackgroundColor=none;fillColor=none;gradientColor=none;direction=west;" parent="1" vertex="1">
          <mxGeometry x="100" y="-30" width="50" height="200" as="geometry" />
        </mxCell>
        <mxCell id="sh7tVW11IKmXvSeuLfNp-22" value="administration_t *admins" style="swimlane;fontStyle=0;childLayout=stackLayout;horizontal=1;startSize=30;horizontalStack=0;resizeParent=1;resizeParentMax=0;resizeLast=0;collapsible=1;marginBottom=0;whiteSpace=wrap;html=1;fontFamily=Courier New;fontSize=11;labelBackgroundColor=none;fillColor=#d5e8d4;strokeColor=#82b366;swimlaneFillColor=none;" vertex="1" parent="1">
          <mxGeometry x="1540" y="190" width="240" height="180" as="geometry" />
        </mxCell>
        <mxCell id="sh7tVW11IKmXvSeuLfNp-23" value="parent_ptr" style="text;strokeColor=none;fillColor=none;align=left;verticalAlign=middle;spacingLeft=4;spacingRight=4;overflow=hidden;points=[[0,0.5],[1,0.5]];portConstraint=eastwest;rotatable=0;whiteSpace=wrap;html=1;fontFamily=Courier New;fontSize=11;fontColor=default;labelBackgroundColor=default;" vertex="1" parent="sh7tVW11IKmXvSeuLfNp-22">
          <mxGeometry y="30" width="240" height="30" as="geometry" />
        </mxCell>
        <mxCell id="sh7tVW11IKmXvSeuLfNp-24" value="&lt;font face=&quot;Courier New&quot;&gt;child_admins[]&lt;/font&gt;" style="text;align=left;verticalAlign=middle;spacingLeft=4;spacingRight=4;overflow=hidden;points=[[0,0.5],[1,0.5]];portConstraint=eastwest;rotatable=0;whiteSpace=wrap;html=1;fontFamily=Courier New;fontSize=11;labelBackgroundColor=default;" vertex="1" parent="sh7tVW11IKmXvSeuLfNp-22">
          <mxGeometry y="60" width="240" height="30" as="geometry" />
        </mxCell>
        <mxCell id="sh7tVW11IKmXvSeuLfNp-28" value="region_ids[]" style="text;strokeColor=none;fillColor=none;align=left;verticalAlign=middle;spacingLeft=4;spacingRight=4;overflow=hidden;points=[[0,0.5],[1,0.5]];portConstraint=eastwest;rotatable=0;whiteSpace=wrap;html=1;fontFamily=Courier New;fontSize=11;fontColor=default;labelBackgroundColor=default;" vertex="1" parent="sh7tVW11IKmXvSeuLfNp-22">
          <mxGeometry y="90" width="240" height="30" as="geometry" />
        </mxCell>
        <mxCell id="sh7tVW11IKmXvSeuLfNp-29" value="NULL" style="text;strokeColor=none;fillColor=none;align=left;verticalAlign=middle;spacingLeft=4;spacingRight=4;overflow=hidden;points=[[0,0.5],[1,0.5]];portConstraint=eastwest;rotatable=0;whiteSpace=wrap;html=1;fontFamily=Courier New;fontSize=11;fontColor=default;labelBackgroundColor=default;fontStyle=1" vertex="1" parent="sh7tVW11IKmXvSeuLfNp-22">
          <mxGeometry y="120" width="240" height="30" as="geometry" />
        </mxCell>
        <mxCell id="sh7tVW11IKmXvSeuLfNp-30" value="data..." style="text;strokeColor=none;fillColor=none;align=left;verticalAlign=middle;spacingLeft=4;spacingRight=4;overflow=hidden;points=[[0,0.5],[1,0.5]];portConstraint=eastwest;rotatable=0;whiteSpace=wrap;html=1;fontFamily=Courier New;fontSize=11;fontColor=default;labelBackgroundColor=default;" vertex="1" parent="sh7tVW11IKmXvSeuLfNp-22">
          <mxGeometry y="150" width="240" height="30" as="geometry" />
        </mxCell>
        <mxCell id="sh7tVW11IKmXvSeuLfNp-31" value="administration_t *admins" style="swimlane;fontStyle=0;childLayout=stackLayout;horizontal=1;startSize=30;horizontalStack=0;resizeParent=1;resizeParentMax=0;resizeLast=0;collapsible=1;marginBottom=0;whiteSpace=wrap;html=1;fontFamily=Courier New;fontSize=11;labelBackgroundColor=none;fillColor=#fff2cc;strokeColor=#d6b656;swimlaneFillColor=none;" vertex="1" parent="1">
          <mxGeometry x="1250" y="190" width="240" height="180" as="geometry" />
        </mxCell>
        <mxCell id="sh7tVW11IKmXvSeuLfNp-32" value="parent_ptr" style="text;strokeColor=none;fillColor=none;align=left;verticalAlign=middle;spacingLeft=4;spacingRight=4;overflow=hidden;points=[[0,0.5],[1,0.5]];portConstraint=eastwest;rotatable=0;whiteSpace=wrap;html=1;fontFamily=Courier New;fontSize=11;fontColor=default;labelBackgroundColor=default;" vertex="1" parent="sh7tVW11IKmXvSeuLfNp-31">
          <mxGeometry y="30" width="240" height="30" as="geometry" />
        </mxCell>
        <mxCell id="sh7tVW11IKmXvSeuLfNp-33" value="&lt;font face=&quot;Courier New&quot;&gt;child_admins[]&lt;/font&gt;" style="text;align=left;verticalAlign=middle;spacingLeft=4;spacingRight=4;overflow=hidden;points=[[0,0.5],[1,0.5]];portConstraint=eastwest;rotatable=0;whiteSpace=wrap;html=1;fontFamily=Courier New;fontSize=11;labelBackgroundColor=default;" vertex="1" parent="sh7tVW11IKmXvSeuLfNp-31">
          <mxGeometry y="60" width="240" height="30" as="geometry" />
        </mxCell>
        <mxCell id="sh7tVW11IKmXvSeuLfNp-34" value="region_ids[]" style="text;strokeColor=none;fillColor=none;align=left;verticalAlign=middle;spacingLeft=4;spacingRight=4;overflow=hidden;points=[[0,0.5],[1,0.5]];portConstraint=eastwest;rotatable=0;whiteSpace=wrap;html=1;fontFamily=Courier New;fontSize=11;fontColor=default;labelBackgroundColor=default;" vertex="1" parent="sh7tVW11IKmXvSeuLfNp-31">
          <mxGeometry y="90" width="240" height="30" as="geometry" />
        </mxCell>
        <mxCell id="sh7tVW11IKmXvSeuLfNp-35" value="market_t *mrkt_ptr" style="text;strokeColor=none;fillColor=none;align=left;verticalAlign=middle;spacingLeft=4;spacingRight=4;overflow=hidden;points=[[0,0.5],[1,0.5]];portConstraint=eastwest;rotatable=0;whiteSpace=wrap;html=1;fontFamily=Courier New;fontSize=11;fontColor=default;labelBackgroundColor=default;" vertex="1" parent="sh7tVW11IKmXvSeuLfNp-31">
          <mxGeometry y="120" width="240" height="30" as="geometry" />
        </mxCell>
        <mxCell id="sh7tVW11IKmXvSeuLfNp-36" value="data..." style="text;strokeColor=none;fillColor=none;align=left;verticalAlign=middle;spacingLeft=4;spacingRight=4;overflow=hidden;points=[[0,0.5],[1,0.5]];portConstraint=eastwest;rotatable=0;whiteSpace=wrap;html=1;fontFamily=Courier New;fontSize=11;fontColor=default;labelBackgroundColor=default;" vertex="1" parent="sh7tVW11IKmXvSeuLfNp-31">
          <mxGeometry y="150" width="240" height="30" as="geometry" />
        </mxCell>
        <mxCell id="sh7tVW11IKmXvSeuLfNp-37" value="administration_t *admins" style="swimlane;fontStyle=0;childLayout=stackLayout;horizontal=1;startSize=30;horizontalStack=0;resizeParent=1;resizeParentMax=0;resizeLast=0;collapsible=1;marginBottom=0;whiteSpace=wrap;html=1;fontFamily=Courier New;fontSize=11;labelBackgroundColor=none;fillColor=#d5e8d4;strokeColor=#82b366;swimlaneFillColor=none;" vertex="1" parent="1">
          <mxGeometry x="1380" y="-50" width="240" height="180" as="geometry" />
        </mxCell>
        <mxCell id="sh7tVW11IKmXvSeuLfNp-38" value="parent_ptr" style="text;strokeColor=none;fillColor=none;align=left;verticalAlign=middle;spacingLeft=4;spacingRight=4;overflow=hidden;points=[[0,0.5],[1,0.5]];portConstraint=eastwest;rotatable=0;whiteSpace=wrap;html=1;fontFamily=Courier New;fontSize=11;fontColor=default;labelBackgroundColor=default;" vertex="1" parent="sh7tVW11IKmXvSeuLfNp-37">
          <mxGeometry y="30" width="240" height="30" as="geometry" />
        </mxCell>
        <mxCell id="sh7tVW11IKmXvSeuLfNp-39" value="&lt;font face=&quot;Courier New&quot;&gt;child_admins[]&lt;/font&gt;" style="text;align=left;verticalAlign=middle;spacingLeft=4;spacingRight=4;overflow=hidden;points=[[0,0.5],[1,0.5]];portConstraint=eastwest;rotatable=0;whiteSpace=wrap;html=1;fontFamily=Courier New;fontSize=11;labelBackgroundColor=default;" vertex="1" parent="sh7tVW11IKmXvSeuLfNp-37">
          <mxGeometry y="60" width="240" height="30" as="geometry" />
        </mxCell>
        <mxCell id="sh7tVW11IKmXvSeuLfNp-40" value="region_ids[]" style="text;strokeColor=none;fillColor=none;align=left;verticalAlign=middle;spacingLeft=4;spacingRight=4;overflow=hidden;points=[[0,0.5],[1,0.5]];portConstraint=eastwest;rotatable=0;whiteSpace=wrap;html=1;fontFamily=Courier New;fontSize=11;fontColor=default;labelBackgroundColor=default;" vertex="1" parent="sh7tVW11IKmXvSeuLfNp-37">
          <mxGeometry y="90" width="240" height="30" as="geometry" />
        </mxCell>
        <mxCell id="sh7tVW11IKmXvSeuLfNp-41" value="market_t *mrkt_ptr" style="text;strokeColor=none;fillColor=none;align=left;verticalAlign=middle;spacingLeft=4;spacingRight=4;overflow=hidden;points=[[0,0.5],[1,0.5]];portConstraint=eastwest;rotatable=0;whiteSpace=wrap;html=1;fontFamily=Courier New;fontSize=11;fontColor=default;labelBackgroundColor=default;" vertex="1" parent="sh7tVW11IKmXvSeuLfNp-37">
          <mxGeometry y="120" width="240" height="30" as="geometry" />
        </mxCell>
        <mxCell id="sh7tVW11IKmXvSeuLfNp-42" value="data..." style="text;strokeColor=none;fillColor=none;align=left;verticalAlign=middle;spacingLeft=4;spacingRight=4;overflow=hidden;points=[[0,0.5],[1,0.5]];portConstraint=eastwest;rotatable=0;whiteSpace=wrap;html=1;fontFamily=Courier New;fontSize=11;fontColor=default;labelBackgroundColor=default;" vertex="1" parent="sh7tVW11IKmXvSeuLfNp-37">
          <mxGeometry y="150" width="240" height="30" as="geometry" />
        </mxCell>
        <mxCell id="sh7tVW11IKmXvSeuLfNp-43" value="administration_t *admins" style="swimlane;fontStyle=0;childLayout=stackLayout;horizontal=1;startSize=30;horizontalStack=0;resizeParent=1;resizeParentMax=0;resizeLast=0;collapsible=1;marginBottom=0;whiteSpace=wrap;html=1;fontFamily=Courier New;fontSize=11;labelBackgroundColor=none;fillColor=#fff2cc;strokeColor=#d6b656;swimlaneFillColor=none;" vertex="1" parent="1">
          <mxGeometry x="1250" y="410" width="240" height="180" as="geometry" />
        </mxCell>
        <mxCell id="sh7tVW11IKmXvSeuLfNp-44" value="parent_ptr" style="text;strokeColor=none;fillColor=none;align=left;verticalAlign=middle;spacingLeft=4;spacingRight=4;overflow=hidden;points=[[0,0.5],[1,0.5]];portConstraint=eastwest;rotatable=0;whiteSpace=wrap;html=1;fontFamily=Courier New;fontSize=11;fontColor=default;labelBackgroundColor=default;" vertex="1" parent="sh7tVW11IKmXvSeuLfNp-43">
          <mxGeometry y="30" width="240" height="30" as="geometry" />
        </mxCell>
        <mxCell id="sh7tVW11IKmXvSeuLfNp-45" value="&lt;font face=&quot;Courier New&quot;&gt;child_admins[]&lt;/font&gt;" style="text;align=left;verticalAlign=middle;spacingLeft=4;spacingRight=4;overflow=hidden;points=[[0,0.5],[1,0.5]];portConstraint=eastwest;rotatable=0;whiteSpace=wrap;html=1;fontFamily=Courier New;fontSize=11;labelBackgroundColor=default;" vertex="1" parent="sh7tVW11IKmXvSeuLfNp-43">
          <mxGeometry y="60" width="240" height="30" as="geometry" />
        </mxCell>
        <mxCell id="sh7tVW11IKmXvSeuLfNp-46" value="region_ids[]" style="text;strokeColor=none;fillColor=none;align=left;verticalAlign=middle;spacingLeft=4;spacingRight=4;overflow=hidden;points=[[0,0.5],[1,0.5]];portConstraint=eastwest;rotatable=0;whiteSpace=wrap;html=1;fontFamily=Courier New;fontSize=11;fontColor=default;labelBackgroundColor=default;" vertex="1" parent="sh7tVW11IKmXvSeuLfNp-43">
          <mxGeometry y="90" width="240" height="30" as="geometry" />
        </mxCell>
        <mxCell id="sh7tVW11IKmXvSeuLfNp-47" value="NULL" style="text;strokeColor=none;fillColor=none;align=left;verticalAlign=middle;spacingLeft=4;spacingRight=4;overflow=hidden;points=[[0,0.5],[1,0.5]];portConstraint=eastwest;rotatable=0;whiteSpace=wrap;html=1;fontFamily=Courier New;fontSize=11;fontColor=default;labelBackgroundColor=default;fontStyle=1" vertex="1" parent="sh7tVW11IKmXvSeuLfNp-43">
          <mxGeometry y="120" width="240" height="30" as="geometry" />
        </mxCell>
        <mxCell id="sh7tVW11IKmXvSeuLfNp-48" value="data..." style="text;strokeColor=none;fillColor=none;align=left;verticalAlign=middle;spacingLeft=4;spacingRight=4;overflow=hidden;points=[[0,0.5],[1,0.5]];portConstraint=eastwest;rotatable=0;whiteSpace=wrap;html=1;fontFamily=Courier New;fontSize=11;fontColor=default;labelBackgroundColor=default;" vertex="1" parent="sh7tVW11IKmXvSeuLfNp-43">
          <mxGeometry y="150" width="240" height="30" as="geometry" />
        </mxCell>
        <mxCell id="sh7tVW11IKmXvSeuLfNp-49" style="edgeStyle=elbowEdgeStyle;shape=connector;rounded=1;jumpStyle=arc;orthogonalLoop=1;jettySize=auto;elbow=horizontal;html=1;exitX=1.005;exitY=0.583;exitDx=0;exitDy=0;strokeColor=#990000;strokeWidth=2;align=center;verticalAlign=middle;fontFamily=Courier New;fontSize=11;fontColor=default;labelBackgroundColor=default;startArrow=baseDash;startFill=0;endArrow=classic;exitPerimeter=0;entryX=0.75;entryY=0;entryDx=0;entryDy=0;" edge="1" parent="1" source="sh7tVW11IKmXvSeuLfNp-39" target="sh7tVW11IKmXvSeuLfNp-22">
          <mxGeometry relative="1" as="geometry">
            <mxPoint x="1630.11" y="25" as="sourcePoint" />
            <mxPoint x="1629.9988888888886" y="190" as="targetPoint" />
            <Array as="points">
              <mxPoint x="1720" y="110" />
            </Array>
          </mxGeometry>
        </mxCell>
        <mxCell id="sh7tVW11IKmXvSeuLfNp-50" style="edgeStyle=elbowEdgeStyle;shape=connector;rounded=1;jumpStyle=arc;orthogonalLoop=1;jettySize=auto;elbow=horizontal;html=1;exitX=0;exitY=0.5;exitDx=0;exitDy=0;entryX=0.25;entryY=0;entryDx=0;entryDy=0;strokeColor=#990000;strokeWidth=2;align=center;verticalAlign=middle;fontFamily=Courier New;fontSize=11;fontColor=default;labelBackgroundColor=default;startArrow=baseDash;startFill=0;endArrow=classic;" edge="1" parent="1" source="sh7tVW11IKmXvSeuLfNp-39" target="sh7tVW11IKmXvSeuLfNp-31">
          <mxGeometry relative="1" as="geometry">
            <Array as="points">
              <mxPoint x="1310" y="110" />
            </Array>
          </mxGeometry>
        </mxCell>
        <mxCell id="sh7tVW11IKmXvSeuLfNp-52" value="market_t" style="swimlane;fontStyle=0;childLayout=stackLayout;horizontal=1;startSize=30;horizontalStack=0;resizeParent=1;resizeParentMax=0;resizeLast=0;collapsible=1;marginBottom=0;whiteSpace=wrap;html=1;strokeColor=#d6b656;align=center;verticalAlign=middle;swimlaneFillColor=none;fontFamily=Courier New;fontSize=11;labelBackgroundColor=none;fillColor=#fff2cc;" vertex="1" parent="1">
          <mxGeometry x="960" y="10" width="240" height="150" as="geometry" />
        </mxCell>
        <mxCell id="sh7tVW11IKmXvSeuLfNp-53" value="bourgeoisie_stored_yields" style="text;strokeColor=none;fillColor=none;align=left;verticalAlign=middle;spacingLeft=4;spacingRight=4;overflow=hidden;points=[[0,0.5],[1,0.5]];portConstraint=eastwest;rotatable=0;whiteSpace=wrap;html=1;fontFamily=Courier New;fontSize=11;fontColor=default;fontStyle=0;labelBackgroundColor=none;" vertex="1" parent="sh7tVW11IKmXvSeuLfNp-52">
          <mxGeometry y="30" width="240" height="30" as="geometry" />
        </mxCell>
        <mxCell id="sh7tVW11IKmXvSeuLfNp-54" value="bourgeoisie_yields_pt" style="text;strokeColor=none;fillColor=none;align=left;verticalAlign=middle;spacingLeft=4;spacingRight=4;overflow=hidden;points=[[0,0.5],[1,0.5]];portConstraint=eastwest;rotatable=0;whiteSpace=wrap;html=1;fontFamily=Courier New;fontSize=11;fontColor=default;fontStyle=0;labelBackgroundColor=none;" vertex="1" parent="sh7tVW11IKmXvSeuLfNp-52">
          <mxGeometry y="60" width="240" height="30" as="geometry" />
        </mxCell>
        <mxCell id="sh7tVW11IKmXvSeuLfNp-55" value="top_lvl_admins[] " style="text;strokeColor=none;fillColor=none;align=left;verticalAlign=middle;spacingLeft=4;spacingRight=4;overflow=hidden;points=[[0,0.5],[1,0.5]];portConstraint=eastwest;rotatable=0;whiteSpace=wrap;html=1;fontFamily=Courier New;fontSize=11;fontColor=default;fontStyle=0;labelBackgroundColor=none;" vertex="1" parent="sh7tVW11IKmXvSeuLfNp-52">
          <mxGeometry y="90" width="240" height="30" as="geometry" />
        </mxCell>
        <mxCell id="sh7tVW11IKmXvSeuLfNp-56" value="bourgeoisie_yields_pt" style="text;strokeColor=none;fillColor=none;align=left;verticalAlign=middle;spacingLeft=4;spacingRight=4;overflow=hidden;points=[[0,0.5],[1,0.5]];portConstraint=eastwest;rotatable=0;whiteSpace=wrap;html=1;fontFamily=Courier New;fontSize=11;fontColor=default;fontStyle=0;labelBackgroundColor=none;" vertex="1" parent="sh7tVW11IKmXvSeuLfNp-52">
          <mxGeometry y="120" width="240" height="30" as="geometry" />
        </mxCell>
        <mxCell id="sh7tVW11IKmXvSeuLfNp-57" value="market_t" style="swimlane;fontStyle=0;childLayout=stackLayout;horizontal=1;startSize=30;horizontalStack=0;resizeParent=1;resizeParentMax=0;resizeLast=0;collapsible=1;marginBottom=0;whiteSpace=wrap;html=1;strokeColor=#82b366;align=center;verticalAlign=middle;swimlaneFillColor=none;fontFamily=Courier New;fontSize=11;labelBackgroundColor=none;fillColor=#d5e8d4;" vertex="1" parent="1">
          <mxGeometry x="1720" y="-190" width="240" height="150" as="geometry" />
        </mxCell>
        <mxCell id="sh7tVW11IKmXvSeuLfNp-58" value="bourgeoisie_stored_yields" style="text;strokeColor=none;fillColor=none;align=left;verticalAlign=middle;spacingLeft=4;spacingRight=4;overflow=hidden;points=[[0,0.5],[1,0.5]];portConstraint=eastwest;rotatable=0;whiteSpace=wrap;html=1;fontFamily=Courier New;fontSize=11;fontColor=default;fontStyle=0;labelBackgroundColor=none;" vertex="1" parent="sh7tVW11IKmXvSeuLfNp-57">
          <mxGeometry y="30" width="240" height="30" as="geometry" />
        </mxCell>
        <mxCell id="sh7tVW11IKmXvSeuLfNp-59" value="bourgeoisie_yields_pt" style="text;strokeColor=none;fillColor=none;align=left;verticalAlign=middle;spacingLeft=4;spacingRight=4;overflow=hidden;points=[[0,0.5],[1,0.5]];portConstraint=eastwest;rotatable=0;whiteSpace=wrap;html=1;fontFamily=Courier New;fontSize=11;fontColor=default;fontStyle=0;labelBackgroundColor=none;" vertex="1" parent="sh7tVW11IKmXvSeuLfNp-57">
          <mxGeometry y="60" width="240" height="30" as="geometry" />
        </mxCell>
        <mxCell id="sh7tVW11IKmXvSeuLfNp-60" value="top_lvl_admins[] " style="text;strokeColor=none;fillColor=none;align=left;verticalAlign=middle;spacingLeft=4;spacingRight=4;overflow=hidden;points=[[0,0.5],[1,0.5]];portConstraint=eastwest;rotatable=0;whiteSpace=wrap;html=1;fontFamily=Courier New;fontSize=11;fontColor=default;fontStyle=0;labelBackgroundColor=none;" vertex="1" parent="sh7tVW11IKmXvSeuLfNp-57">
          <mxGeometry y="90" width="240" height="30" as="geometry" />
        </mxCell>
        <mxCell id="sh7tVW11IKmXvSeuLfNp-61" value="bourgeoisie_yields_pt" style="text;strokeColor=none;fillColor=none;align=left;verticalAlign=middle;spacingLeft=4;spacingRight=4;overflow=hidden;points=[[0,0.5],[1,0.5]];portConstraint=eastwest;rotatable=0;whiteSpace=wrap;html=1;fontFamily=Courier New;fontSize=11;fontColor=default;fontStyle=0;labelBackgroundColor=none;" vertex="1" parent="sh7tVW11IKmXvSeuLfNp-57">
          <mxGeometry y="120" width="240" height="30" as="geometry" />
        </mxCell>
        <mxCell id="sh7tVW11IKmXvSeuLfNp-62" style="edgeStyle=elbowEdgeStyle;shape=connector;rounded=1;jumpStyle=arc;orthogonalLoop=1;jettySize=auto;elbow=horizontal;html=1;exitX=1;exitY=0.5;exitDx=0;exitDy=0;strokeColor=#990000;strokeWidth=2;align=center;verticalAlign=middle;fontFamily=Courier New;fontSize=11;fontColor=default;labelBackgroundColor=default;startArrow=baseDash;startFill=0;endArrow=classic;" edge="1" parent="1" source="sh7tVW11IKmXvSeuLfNp-41" target="sh7tVW11IKmXvSeuLfNp-57">
          <mxGeometry relative="1" as="geometry" />
        </mxCell>
        <mxCell id="sh7tVW11IKmXvSeuLfNp-63" style="edgeStyle=elbowEdgeStyle;shape=connector;rounded=1;jumpStyle=arc;orthogonalLoop=1;jettySize=auto;elbow=horizontal;html=1;exitX=0;exitY=0.5;exitDx=0;exitDy=0;strokeColor=#990000;strokeWidth=2;align=center;verticalAlign=middle;fontFamily=Courier New;fontSize=11;fontColor=default;labelBackgroundColor=default;startArrow=baseDash;startFill=0;endArrow=classic;" edge="1" parent="1" source="sh7tVW11IKmXvSeuLfNp-35" target="sh7tVW11IKmXvSeuLfNp-52">
          <mxGeometry relative="1" as="geometry" />
        </mxCell>
        <mxCell id="sh7tVW11IKmXvSeuLfNp-64" style="edgeStyle=elbowEdgeStyle;shape=connector;rounded=1;jumpStyle=arc;orthogonalLoop=1;jettySize=auto;elbow=horizontal;html=1;exitX=1;exitY=0.5;exitDx=0;exitDy=0;strokeColor=#990000;strokeWidth=2;align=center;verticalAlign=middle;fontFamily=Courier New;fontSize=11;fontColor=default;labelBackgroundColor=default;startArrow=baseDash;startFill=0;endArrow=classic;" edge="1" parent="1" source="sh7tVW11IKmXvSeuLfNp-33" target="sh7tVW11IKmXvSeuLfNp-43">
          <mxGeometry relative="1" as="geometry">
            <mxPoint x="1540" y="500" as="targetPoint" />
            <Array as="points">
              <mxPoint x="1520" y="390" />
            </Array>
          </mxGeometry>
        </mxCell>
        <mxCell id="sh7tVW11IKmXvSeuLfNp-65" value="One state, several markets" style="text;html=1;align=center;verticalAlign=middle;whiteSpace=wrap;rounded=0;fontFamily=Courier New;fontSize=16;fontColor=default;fontStyle=0;labelBackgroundColor=default;" vertex="1" parent="1">
          <mxGeometry x="1220" y="-140" width="230" height="30" as="geometry" />
        </mxCell>
        <mxCell id="sh7tVW11IKmXvSeuLfNp-66" value="administration_t *admins" style="swimlane;fontStyle=0;childLayout=stackLayout;horizontal=1;startSize=30;horizontalStack=0;resizeParent=1;resizeParentMax=0;resizeLast=0;collapsible=1;marginBottom=0;whiteSpace=wrap;html=1;fontFamily=Courier New;fontSize=11;labelBackgroundColor=none;fillColor=#e1d5e7;strokeColor=#9673a6;swimlaneFillColor=none;" vertex="1" parent="1">
          <mxGeometry x="2960" y="260" width="240" height="180" as="geometry" />
        </mxCell>
        <mxCell id="sh7tVW11IKmXvSeuLfNp-67" value="parent_ptr" style="text;strokeColor=none;fillColor=none;align=left;verticalAlign=middle;spacingLeft=4;spacingRight=4;overflow=hidden;points=[[0,0.5],[1,0.5]];portConstraint=eastwest;rotatable=0;whiteSpace=wrap;html=1;fontFamily=Courier New;fontSize=11;fontColor=default;labelBackgroundColor=default;" vertex="1" parent="sh7tVW11IKmXvSeuLfNp-66">
          <mxGeometry y="30" width="240" height="30" as="geometry" />
        </mxCell>
        <mxCell id="sh7tVW11IKmXvSeuLfNp-68" value="&lt;font face=&quot;Courier New&quot;&gt;child_admins[]&lt;/font&gt;" style="text;align=left;verticalAlign=middle;spacingLeft=4;spacingRight=4;overflow=hidden;points=[[0,0.5],[1,0.5]];portConstraint=eastwest;rotatable=0;whiteSpace=wrap;html=1;fontFamily=Courier New;fontSize=11;labelBackgroundColor=default;" vertex="1" parent="sh7tVW11IKmXvSeuLfNp-66">
          <mxGeometry y="60" width="240" height="30" as="geometry" />
        </mxCell>
        <mxCell id="sh7tVW11IKmXvSeuLfNp-69" value="region_ids[]" style="text;strokeColor=none;fillColor=none;align=left;verticalAlign=middle;spacingLeft=4;spacingRight=4;overflow=hidden;points=[[0,0.5],[1,0.5]];portConstraint=eastwest;rotatable=0;whiteSpace=wrap;html=1;fontFamily=Courier New;fontSize=11;fontColor=default;labelBackgroundColor=default;" vertex="1" parent="sh7tVW11IKmXvSeuLfNp-66">
          <mxGeometry y="90" width="240" height="30" as="geometry" />
        </mxCell>
        <mxCell id="sh7tVW11IKmXvSeuLfNp-70" value="NULL" style="text;strokeColor=none;fillColor=none;align=left;verticalAlign=middle;spacingLeft=4;spacingRight=4;overflow=hidden;points=[[0,0.5],[1,0.5]];portConstraint=eastwest;rotatable=0;whiteSpace=wrap;html=1;fontFamily=Courier New;fontSize=11;fontColor=default;labelBackgroundColor=default;fontStyle=1" vertex="1" parent="sh7tVW11IKmXvSeuLfNp-66">
          <mxGeometry y="120" width="240" height="30" as="geometry" />
        </mxCell>
        <mxCell id="sh7tVW11IKmXvSeuLfNp-71" value="data..." style="text;strokeColor=none;fillColor=none;align=left;verticalAlign=middle;spacingLeft=4;spacingRight=4;overflow=hidden;points=[[0,0.5],[1,0.5]];portConstraint=eastwest;rotatable=0;whiteSpace=wrap;html=1;fontFamily=Courier New;fontSize=11;fontColor=default;labelBackgroundColor=default;" vertex="1" parent="sh7tVW11IKmXvSeuLfNp-66">
          <mxGeometry y="150" width="240" height="30" as="geometry" />
        </mxCell>
        <mxCell id="sh7tVW11IKmXvSeuLfNp-72" value="administration_t *admins" style="swimlane;fontStyle=0;childLayout=stackLayout;horizontal=1;startSize=30;horizontalStack=0;resizeParent=1;resizeParentMax=0;resizeLast=0;collapsible=1;marginBottom=0;whiteSpace=wrap;html=1;fontFamily=Courier New;fontSize=11;labelBackgroundColor=none;fillColor=#e1d5e7;strokeColor=#9673a6;swimlaneFillColor=none;" vertex="1" parent="1">
          <mxGeometry x="2670" y="260" width="240" height="180" as="geometry" />
        </mxCell>
        <mxCell id="sh7tVW11IKmXvSeuLfNp-73" value="parent_ptr" style="text;strokeColor=none;fillColor=none;align=left;verticalAlign=middle;spacingLeft=4;spacingRight=4;overflow=hidden;points=[[0,0.5],[1,0.5]];portConstraint=eastwest;rotatable=0;whiteSpace=wrap;html=1;fontFamily=Courier New;fontSize=11;fontColor=default;labelBackgroundColor=default;" vertex="1" parent="sh7tVW11IKmXvSeuLfNp-72">
          <mxGeometry y="30" width="240" height="30" as="geometry" />
        </mxCell>
        <mxCell id="sh7tVW11IKmXvSeuLfNp-74" value="&lt;font face=&quot;Courier New&quot;&gt;child_admins[]&lt;/font&gt;" style="text;align=left;verticalAlign=middle;spacingLeft=4;spacingRight=4;overflow=hidden;points=[[0,0.5],[1,0.5]];portConstraint=eastwest;rotatable=0;whiteSpace=wrap;html=1;fontFamily=Courier New;fontSize=11;labelBackgroundColor=default;" vertex="1" parent="sh7tVW11IKmXvSeuLfNp-72">
          <mxGeometry y="60" width="240" height="30" as="geometry" />
        </mxCell>
        <mxCell id="sh7tVW11IKmXvSeuLfNp-75" value="region_ids[]" style="text;strokeColor=none;fillColor=none;align=left;verticalAlign=middle;spacingLeft=4;spacingRight=4;overflow=hidden;points=[[0,0.5],[1,0.5]];portConstraint=eastwest;rotatable=0;whiteSpace=wrap;html=1;fontFamily=Courier New;fontSize=11;fontColor=default;labelBackgroundColor=default;" vertex="1" parent="sh7tVW11IKmXvSeuLfNp-72">
          <mxGeometry y="90" width="240" height="30" as="geometry" />
        </mxCell>
        <mxCell id="sh7tVW11IKmXvSeuLfNp-76" value="NULL" style="text;strokeColor=none;fillColor=none;align=left;verticalAlign=middle;spacingLeft=4;spacingRight=4;overflow=hidden;points=[[0,0.5],[1,0.5]];portConstraint=eastwest;rotatable=0;whiteSpace=wrap;html=1;fontFamily=Courier New;fontSize=11;fontColor=default;labelBackgroundColor=default;fontStyle=1" vertex="1" parent="sh7tVW11IKmXvSeuLfNp-72">
          <mxGeometry y="120" width="240" height="30" as="geometry" />
        </mxCell>
        <mxCell id="sh7tVW11IKmXvSeuLfNp-77" value="data..." style="text;strokeColor=none;fillColor=none;align=left;verticalAlign=middle;spacingLeft=4;spacingRight=4;overflow=hidden;points=[[0,0.5],[1,0.5]];portConstraint=eastwest;rotatable=0;whiteSpace=wrap;html=1;fontFamily=Courier New;fontSize=11;fontColor=default;labelBackgroundColor=default;" vertex="1" parent="sh7tVW11IKmXvSeuLfNp-72">
          <mxGeometry y="150" width="240" height="30" as="geometry" />
        </mxCell>
        <mxCell id="sh7tVW11IKmXvSeuLfNp-78" value="administration_t *admins" style="swimlane;fontStyle=0;childLayout=stackLayout;horizontal=1;startSize=30;horizontalStack=0;resizeParent=1;resizeParentMax=0;resizeLast=0;collapsible=1;marginBottom=0;whiteSpace=wrap;html=1;fontFamily=Courier New;fontSize=11;labelBackgroundColor=none;fillColor=#e1d5e7;strokeColor=#9673a6;swimlaneFillColor=none;" vertex="1" parent="1">
          <mxGeometry x="2800" y="20" width="240" height="180" as="geometry" />
        </mxCell>
        <mxCell id="sh7tVW11IKmXvSeuLfNp-79" value="parent_ptr" style="text;strokeColor=none;fillColor=none;align=left;verticalAlign=middle;spacingLeft=4;spacingRight=4;overflow=hidden;points=[[0,0.5],[1,0.5]];portConstraint=eastwest;rotatable=0;whiteSpace=wrap;html=1;fontFamily=Courier New;fontSize=11;fontColor=default;labelBackgroundColor=default;" vertex="1" parent="sh7tVW11IKmXvSeuLfNp-78">
          <mxGeometry y="30" width="240" height="30" as="geometry" />
        </mxCell>
        <mxCell id="sh7tVW11IKmXvSeuLfNp-80" value="&lt;font face=&quot;Courier New&quot;&gt;child_admins[]&lt;/font&gt;" style="text;align=left;verticalAlign=middle;spacingLeft=4;spacingRight=4;overflow=hidden;points=[[0,0.5],[1,0.5]];portConstraint=eastwest;rotatable=0;whiteSpace=wrap;html=1;fontFamily=Courier New;fontSize=11;labelBackgroundColor=default;" vertex="1" parent="sh7tVW11IKmXvSeuLfNp-78">
          <mxGeometry y="60" width="240" height="30" as="geometry" />
        </mxCell>
        <mxCell id="sh7tVW11IKmXvSeuLfNp-81" value="region_ids[]" style="text;strokeColor=none;fillColor=none;align=left;verticalAlign=middle;spacingLeft=4;spacingRight=4;overflow=hidden;points=[[0,0.5],[1,0.5]];portConstraint=eastwest;rotatable=0;whiteSpace=wrap;html=1;fontFamily=Courier New;fontSize=11;fontColor=default;labelBackgroundColor=default;" vertex="1" parent="sh7tVW11IKmXvSeuLfNp-78">
          <mxGeometry y="90" width="240" height="30" as="geometry" />
        </mxCell>
        <mxCell id="sh7tVW11IKmXvSeuLfNp-82" value="market_t *mrkt_ptr" style="text;strokeColor=none;fillColor=none;align=left;verticalAlign=middle;spacingLeft=4;spacingRight=4;overflow=hidden;points=[[0,0.5],[1,0.5]];portConstraint=eastwest;rotatable=0;whiteSpace=wrap;html=1;fontFamily=Courier New;fontSize=11;fontColor=default;labelBackgroundColor=default;" vertex="1" parent="sh7tVW11IKmXvSeuLfNp-78">
          <mxGeometry y="120" width="240" height="30" as="geometry" />
        </mxCell>
        <mxCell id="sh7tVW11IKmXvSeuLfNp-83" value="data..." style="text;strokeColor=none;fillColor=none;align=left;verticalAlign=middle;spacingLeft=4;spacingRight=4;overflow=hidden;points=[[0,0.5],[1,0.5]];portConstraint=eastwest;rotatable=0;whiteSpace=wrap;html=1;fontFamily=Courier New;fontSize=11;fontColor=default;labelBackgroundColor=default;" vertex="1" parent="sh7tVW11IKmXvSeuLfNp-78">
          <mxGeometry y="150" width="240" height="30" as="geometry" />
        </mxCell>
        <mxCell id="sh7tVW11IKmXvSeuLfNp-88" style="edgeStyle=elbowEdgeStyle;shape=connector;rounded=1;jumpStyle=arc;orthogonalLoop=1;jettySize=auto;elbow=horizontal;html=1;exitX=1.005;exitY=0.583;exitDx=0;exitDy=0;strokeColor=#990000;strokeWidth=2;align=center;verticalAlign=middle;fontFamily=Courier New;fontSize=11;fontColor=default;labelBackgroundColor=default;startArrow=baseDash;startFill=0;endArrow=classic;exitPerimeter=0;entryX=0.75;entryY=0;entryDx=0;entryDy=0;" edge="1" parent="1" source="sh7tVW11IKmXvSeuLfNp-80" target="sh7tVW11IKmXvSeuLfNp-66">
          <mxGeometry relative="1" as="geometry">
            <mxPoint x="3050.1099999999997" y="95" as="sourcePoint" />
            <mxPoint x="3049.9988888888884" y="260" as="targetPoint" />
            <Array as="points">
              <mxPoint x="3140" y="180" />
            </Array>
          </mxGeometry>
        </mxCell>
        <mxCell id="sh7tVW11IKmXvSeuLfNp-89" style="edgeStyle=elbowEdgeStyle;shape=connector;rounded=1;jumpStyle=arc;orthogonalLoop=1;jettySize=auto;elbow=horizontal;html=1;exitX=0;exitY=0.5;exitDx=0;exitDy=0;entryX=0.25;entryY=0;entryDx=0;entryDy=0;strokeColor=#990000;strokeWidth=2;align=center;verticalAlign=middle;fontFamily=Courier New;fontSize=11;fontColor=default;labelBackgroundColor=default;startArrow=baseDash;startFill=0;endArrow=classic;" edge="1" parent="1" source="sh7tVW11IKmXvSeuLfNp-80" target="sh7tVW11IKmXvSeuLfNp-72">
          <mxGeometry relative="1" as="geometry">
            <Array as="points">
              <mxPoint x="2730" y="180" />
            </Array>
          </mxGeometry>
        </mxCell>
        <mxCell id="sh7tVW11IKmXvSeuLfNp-103" value="Several states, one market" style="text;html=1;align=center;verticalAlign=middle;whiteSpace=wrap;rounded=0;fontFamily=Courier New;fontSize=16;fontColor=default;fontStyle=0;labelBackgroundColor=default;" vertex="1" parent="1">
          <mxGeometry x="2520" y="-210" width="230" height="30" as="geometry" />
        </mxCell>
        <mxCell id="sh7tVW11IKmXvSeuLfNp-104" value="administration_t *admins" style="swimlane;fontStyle=0;childLayout=stackLayout;horizontal=1;startSize=30;horizontalStack=0;resizeParent=1;resizeParentMax=0;resizeLast=0;collapsible=1;marginBottom=0;whiteSpace=wrap;html=1;fontFamily=Courier New;fontSize=11;labelBackgroundColor=none;fillColor=#e1d5e7;strokeColor=#9673a6;swimlaneFillColor=none;" vertex="1" parent="1">
          <mxGeometry x="2340" y="260" width="240" height="180" as="geometry" />
        </mxCell>
        <mxCell id="sh7tVW11IKmXvSeuLfNp-105" value="parent_ptr" style="text;strokeColor=none;fillColor=none;align=left;verticalAlign=middle;spacingLeft=4;spacingRight=4;overflow=hidden;points=[[0,0.5],[1,0.5]];portConstraint=eastwest;rotatable=0;whiteSpace=wrap;html=1;fontFamily=Courier New;fontSize=11;fontColor=default;labelBackgroundColor=default;" vertex="1" parent="sh7tVW11IKmXvSeuLfNp-104">
          <mxGeometry y="30" width="240" height="30" as="geometry" />
        </mxCell>
        <mxCell id="sh7tVW11IKmXvSeuLfNp-106" value="&lt;font face=&quot;Courier New&quot;&gt;child_admins[]&lt;/font&gt;" style="text;align=left;verticalAlign=middle;spacingLeft=4;spacingRight=4;overflow=hidden;points=[[0,0.5],[1,0.5]];portConstraint=eastwest;rotatable=0;whiteSpace=wrap;html=1;fontFamily=Courier New;fontSize=11;labelBackgroundColor=default;" vertex="1" parent="sh7tVW11IKmXvSeuLfNp-104">
          <mxGeometry y="60" width="240" height="30" as="geometry" />
        </mxCell>
        <mxCell id="sh7tVW11IKmXvSeuLfNp-107" value="region_ids[]" style="text;strokeColor=none;fillColor=none;align=left;verticalAlign=middle;spacingLeft=4;spacingRight=4;overflow=hidden;points=[[0,0.5],[1,0.5]];portConstraint=eastwest;rotatable=0;whiteSpace=wrap;html=1;fontFamily=Courier New;fontSize=11;fontColor=default;labelBackgroundColor=default;" vertex="1" parent="sh7tVW11IKmXvSeuLfNp-104">
          <mxGeometry y="90" width="240" height="30" as="geometry" />
        </mxCell>
        <mxCell id="sh7tVW11IKmXvSeuLfNp-108" value="NULL" style="text;strokeColor=none;fillColor=none;align=left;verticalAlign=middle;spacingLeft=4;spacingRight=4;overflow=hidden;points=[[0,0.5],[1,0.5]];portConstraint=eastwest;rotatable=0;whiteSpace=wrap;html=1;fontFamily=Courier New;fontSize=11;fontColor=default;labelBackgroundColor=default;fontStyle=1" vertex="1" parent="sh7tVW11IKmXvSeuLfNp-104">
          <mxGeometry y="120" width="240" height="30" as="geometry" />
        </mxCell>
        <mxCell id="sh7tVW11IKmXvSeuLfNp-109" value="data..." style="text;strokeColor=none;fillColor=none;align=left;verticalAlign=middle;spacingLeft=4;spacingRight=4;overflow=hidden;points=[[0,0.5],[1,0.5]];portConstraint=eastwest;rotatable=0;whiteSpace=wrap;html=1;fontFamily=Courier New;fontSize=11;fontColor=default;labelBackgroundColor=default;" vertex="1" parent="sh7tVW11IKmXvSeuLfNp-104">
          <mxGeometry y="150" width="240" height="30" as="geometry" />
        </mxCell>
        <mxCell id="sh7tVW11IKmXvSeuLfNp-110" value="administration_t *admins" style="swimlane;fontStyle=0;childLayout=stackLayout;horizontal=1;startSize=30;horizontalStack=0;resizeParent=1;resizeParentMax=0;resizeLast=0;collapsible=1;marginBottom=0;whiteSpace=wrap;html=1;fontFamily=Courier New;fontSize=11;labelBackgroundColor=none;fillColor=#e1d5e7;strokeColor=#9673a6;swimlaneFillColor=none;" vertex="1" parent="1">
          <mxGeometry x="2050" y="260" width="240" height="180" as="geometry" />
        </mxCell>
        <mxCell id="sh7tVW11IKmXvSeuLfNp-111" value="parent_ptr" style="text;strokeColor=none;fillColor=none;align=left;verticalAlign=middle;spacingLeft=4;spacingRight=4;overflow=hidden;points=[[0,0.5],[1,0.5]];portConstraint=eastwest;rotatable=0;whiteSpace=wrap;html=1;fontFamily=Courier New;fontSize=11;fontColor=default;labelBackgroundColor=default;" vertex="1" parent="sh7tVW11IKmXvSeuLfNp-110">
          <mxGeometry y="30" width="240" height="30" as="geometry" />
        </mxCell>
        <mxCell id="sh7tVW11IKmXvSeuLfNp-112" value="&lt;font face=&quot;Courier New&quot;&gt;child_admins[]&lt;/font&gt;" style="text;align=left;verticalAlign=middle;spacingLeft=4;spacingRight=4;overflow=hidden;points=[[0,0.5],[1,0.5]];portConstraint=eastwest;rotatable=0;whiteSpace=wrap;html=1;fontFamily=Courier New;fontSize=11;labelBackgroundColor=default;" vertex="1" parent="sh7tVW11IKmXvSeuLfNp-110">
          <mxGeometry y="60" width="240" height="30" as="geometry" />
        </mxCell>
        <mxCell id="sh7tVW11IKmXvSeuLfNp-113" value="region_ids[]" style="text;strokeColor=none;fillColor=none;align=left;verticalAlign=middle;spacingLeft=4;spacingRight=4;overflow=hidden;points=[[0,0.5],[1,0.5]];portConstraint=eastwest;rotatable=0;whiteSpace=wrap;html=1;fontFamily=Courier New;fontSize=11;fontColor=default;labelBackgroundColor=default;" vertex="1" parent="sh7tVW11IKmXvSeuLfNp-110">
          <mxGeometry y="90" width="240" height="30" as="geometry" />
        </mxCell>
        <mxCell id="sh7tVW11IKmXvSeuLfNp-114" value="NULL" style="text;strokeColor=none;fillColor=none;align=left;verticalAlign=middle;spacingLeft=4;spacingRight=4;overflow=hidden;points=[[0,0.5],[1,0.5]];portConstraint=eastwest;rotatable=0;whiteSpace=wrap;html=1;fontFamily=Courier New;fontSize=11;fontColor=default;labelBackgroundColor=default;fontStyle=1" vertex="1" parent="sh7tVW11IKmXvSeuLfNp-110">
          <mxGeometry y="120" width="240" height="30" as="geometry" />
        </mxCell>
        <mxCell id="sh7tVW11IKmXvSeuLfNp-115" value="data..." style="text;strokeColor=none;fillColor=none;align=left;verticalAlign=middle;spacingLeft=4;spacingRight=4;overflow=hidden;points=[[0,0.5],[1,0.5]];portConstraint=eastwest;rotatable=0;whiteSpace=wrap;html=1;fontFamily=Courier New;fontSize=11;fontColor=default;labelBackgroundColor=default;" vertex="1" parent="sh7tVW11IKmXvSeuLfNp-110">
          <mxGeometry y="150" width="240" height="30" as="geometry" />
        </mxCell>
        <mxCell id="sh7tVW11IKmXvSeuLfNp-116" value="administration_t *admins" style="swimlane;fontStyle=0;childLayout=stackLayout;horizontal=1;startSize=30;horizontalStack=0;resizeParent=1;resizeParentMax=0;resizeLast=0;collapsible=1;marginBottom=0;whiteSpace=wrap;html=1;fontFamily=Courier New;fontSize=11;labelBackgroundColor=none;fillColor=#e1d5e7;strokeColor=#9673a6;swimlaneFillColor=none;" vertex="1" parent="1">
          <mxGeometry x="2180" y="20" width="240" height="180" as="geometry" />
        </mxCell>
        <mxCell id="sh7tVW11IKmXvSeuLfNp-117" value="parent_ptr" style="text;strokeColor=none;fillColor=none;align=left;verticalAlign=middle;spacingLeft=4;spacingRight=4;overflow=hidden;points=[[0,0.5],[1,0.5]];portConstraint=eastwest;rotatable=0;whiteSpace=wrap;html=1;fontFamily=Courier New;fontSize=11;fontColor=default;labelBackgroundColor=default;" vertex="1" parent="sh7tVW11IKmXvSeuLfNp-116">
          <mxGeometry y="30" width="240" height="30" as="geometry" />
        </mxCell>
        <mxCell id="sh7tVW11IKmXvSeuLfNp-118" value="&lt;font face=&quot;Courier New&quot;&gt;child_admins[]&lt;/font&gt;" style="text;align=left;verticalAlign=middle;spacingLeft=4;spacingRight=4;overflow=hidden;points=[[0,0.5],[1,0.5]];portConstraint=eastwest;rotatable=0;whiteSpace=wrap;html=1;fontFamily=Courier New;fontSize=11;labelBackgroundColor=default;" vertex="1" parent="sh7tVW11IKmXvSeuLfNp-116">
          <mxGeometry y="60" width="240" height="30" as="geometry" />
        </mxCell>
        <mxCell id="sh7tVW11IKmXvSeuLfNp-119" value="region_ids[]" style="text;strokeColor=none;fillColor=none;align=left;verticalAlign=middle;spacingLeft=4;spacingRight=4;overflow=hidden;points=[[0,0.5],[1,0.5]];portConstraint=eastwest;rotatable=0;whiteSpace=wrap;html=1;fontFamily=Courier New;fontSize=11;fontColor=default;labelBackgroundColor=default;" vertex="1" parent="sh7tVW11IKmXvSeuLfNp-116">
          <mxGeometry y="90" width="240" height="30" as="geometry" />
        </mxCell>
        <mxCell id="sh7tVW11IKmXvSeuLfNp-120" value="market_t *mrkt_ptr" style="text;strokeColor=none;fillColor=none;align=left;verticalAlign=middle;spacingLeft=4;spacingRight=4;overflow=hidden;points=[[0,0.5],[1,0.5]];portConstraint=eastwest;rotatable=0;whiteSpace=wrap;html=1;fontFamily=Courier New;fontSize=11;fontColor=default;labelBackgroundColor=default;" vertex="1" parent="sh7tVW11IKmXvSeuLfNp-116">
          <mxGeometry y="120" width="240" height="30" as="geometry" />
        </mxCell>
        <mxCell id="sh7tVW11IKmXvSeuLfNp-121" value="data..." style="text;strokeColor=none;fillColor=none;align=left;verticalAlign=middle;spacingLeft=4;spacingRight=4;overflow=hidden;points=[[0,0.5],[1,0.5]];portConstraint=eastwest;rotatable=0;whiteSpace=wrap;html=1;fontFamily=Courier New;fontSize=11;fontColor=default;labelBackgroundColor=default;" vertex="1" parent="sh7tVW11IKmXvSeuLfNp-116">
          <mxGeometry y="150" width="240" height="30" as="geometry" />
        </mxCell>
        <mxCell id="sh7tVW11IKmXvSeuLfNp-122" style="edgeStyle=elbowEdgeStyle;shape=connector;rounded=1;jumpStyle=arc;orthogonalLoop=1;jettySize=auto;elbow=horizontal;html=1;exitX=1.005;exitY=0.583;exitDx=0;exitDy=0;strokeColor=#990000;strokeWidth=2;align=center;verticalAlign=middle;fontFamily=Courier New;fontSize=11;fontColor=default;labelBackgroundColor=default;startArrow=baseDash;startFill=0;endArrow=classic;exitPerimeter=0;entryX=0.75;entryY=0;entryDx=0;entryDy=0;" edge="1" parent="1" source="sh7tVW11IKmXvSeuLfNp-118" target="sh7tVW11IKmXvSeuLfNp-104">
          <mxGeometry relative="1" as="geometry">
            <mxPoint x="2430.1099999999997" y="95" as="sourcePoint" />
            <mxPoint x="2429.9988888888884" y="260" as="targetPoint" />
            <Array as="points">
              <mxPoint x="2520" y="180" />
            </Array>
          </mxGeometry>
        </mxCell>
        <mxCell id="sh7tVW11IKmXvSeuLfNp-123" style="edgeStyle=elbowEdgeStyle;shape=connector;rounded=1;jumpStyle=arc;orthogonalLoop=1;jettySize=auto;elbow=horizontal;html=1;exitX=0;exitY=0.5;exitDx=0;exitDy=0;entryX=0.25;entryY=0;entryDx=0;entryDy=0;strokeColor=#990000;strokeWidth=2;align=center;verticalAlign=middle;fontFamily=Courier New;fontSize=11;fontColor=default;labelBackgroundColor=default;startArrow=baseDash;startFill=0;endArrow=classic;" edge="1" parent="1" source="sh7tVW11IKmXvSeuLfNp-118" target="sh7tVW11IKmXvSeuLfNp-110">
          <mxGeometry relative="1" as="geometry">
            <Array as="points">
              <mxPoint x="2110" y="180" />
            </Array>
          </mxGeometry>
        </mxCell>
        <mxCell id="sh7tVW11IKmXvSeuLfNp-124" value="administration_t *admins" style="swimlane;fontStyle=0;childLayout=stackLayout;horizontal=1;startSize=30;horizontalStack=0;resizeParent=1;resizeParentMax=0;resizeLast=0;collapsible=1;marginBottom=0;whiteSpace=wrap;html=1;fontFamily=Courier New;fontSize=11;labelBackgroundColor=none;fillColor=#e1d5e7;strokeColor=#9673a6;swimlaneFillColor=none;" vertex="1" parent="1">
          <mxGeometry x="2340" y="480" width="240" height="180" as="geometry" />
        </mxCell>
        <mxCell id="sh7tVW11IKmXvSeuLfNp-125" value="parent_ptr" style="text;strokeColor=none;fillColor=none;align=left;verticalAlign=middle;spacingLeft=4;spacingRight=4;overflow=hidden;points=[[0,0.5],[1,0.5]];portConstraint=eastwest;rotatable=0;whiteSpace=wrap;html=1;fontFamily=Courier New;fontSize=11;fontColor=default;labelBackgroundColor=default;" vertex="1" parent="sh7tVW11IKmXvSeuLfNp-124">
          <mxGeometry y="30" width="240" height="30" as="geometry" />
        </mxCell>
        <mxCell id="sh7tVW11IKmXvSeuLfNp-126" value="&lt;font face=&quot;Courier New&quot;&gt;child_admins[]&lt;/font&gt;" style="text;align=left;verticalAlign=middle;spacingLeft=4;spacingRight=4;overflow=hidden;points=[[0,0.5],[1,0.5]];portConstraint=eastwest;rotatable=0;whiteSpace=wrap;html=1;fontFamily=Courier New;fontSize=11;labelBackgroundColor=default;" vertex="1" parent="sh7tVW11IKmXvSeuLfNp-124">
          <mxGeometry y="60" width="240" height="30" as="geometry" />
        </mxCell>
        <mxCell id="sh7tVW11IKmXvSeuLfNp-127" value="region_ids[]" style="text;strokeColor=none;fillColor=none;align=left;verticalAlign=middle;spacingLeft=4;spacingRight=4;overflow=hidden;points=[[0,0.5],[1,0.5]];portConstraint=eastwest;rotatable=0;whiteSpace=wrap;html=1;fontFamily=Courier New;fontSize=11;fontColor=default;labelBackgroundColor=default;" vertex="1" parent="sh7tVW11IKmXvSeuLfNp-124">
          <mxGeometry y="90" width="240" height="30" as="geometry" />
        </mxCell>
        <mxCell id="sh7tVW11IKmXvSeuLfNp-128" value="NULL" style="text;strokeColor=none;fillColor=none;align=left;verticalAlign=middle;spacingLeft=4;spacingRight=4;overflow=hidden;points=[[0,0.5],[1,0.5]];portConstraint=eastwest;rotatable=0;whiteSpace=wrap;html=1;fontFamily=Courier New;fontSize=11;fontColor=default;labelBackgroundColor=default;fontStyle=1" vertex="1" parent="sh7tVW11IKmXvSeuLfNp-124">
          <mxGeometry y="120" width="240" height="30" as="geometry" />
        </mxCell>
        <mxCell id="sh7tVW11IKmXvSeuLfNp-129" value="data..." style="text;strokeColor=none;fillColor=none;align=left;verticalAlign=middle;spacingLeft=4;spacingRight=4;overflow=hidden;points=[[0,0.5],[1,0.5]];portConstraint=eastwest;rotatable=0;whiteSpace=wrap;html=1;fontFamily=Courier New;fontSize=11;fontColor=default;labelBackgroundColor=default;" vertex="1" parent="sh7tVW11IKmXvSeuLfNp-124">
          <mxGeometry y="150" width="240" height="30" as="geometry" />
        </mxCell>
        <mxCell id="sh7tVW11IKmXvSeuLfNp-130" style="edgeStyle=elbowEdgeStyle;shape=connector;rounded=1;jumpStyle=arc;orthogonalLoop=1;jettySize=auto;elbow=horizontal;html=1;exitX=1;exitY=0.5;exitDx=0;exitDy=0;strokeColor=#990000;strokeWidth=2;align=center;verticalAlign=middle;fontFamily=Courier New;fontSize=11;fontColor=default;labelBackgroundColor=default;startArrow=baseDash;startFill=0;endArrow=classic;" edge="1" parent="1" source="sh7tVW11IKmXvSeuLfNp-106" target="sh7tVW11IKmXvSeuLfNp-124">
          <mxGeometry relative="1" as="geometry">
            <Array as="points">
              <mxPoint x="2620" y="430" />
            </Array>
          </mxGeometry>
        </mxCell>
        <mxCell id="sh7tVW11IKmXvSeuLfNp-131" value="market_t" style="swimlane;fontStyle=0;childLayout=stackLayout;horizontal=1;startSize=30;horizontalStack=0;resizeParent=1;resizeParentMax=0;resizeLast=0;collapsible=1;marginBottom=0;whiteSpace=wrap;html=1;strokeColor=#9673a6;align=center;verticalAlign=middle;swimlaneFillColor=none;fontFamily=Courier New;fontSize=11;labelBackgroundColor=none;fillColor=#e1d5e7;" vertex="1" parent="1">
          <mxGeometry x="2500" y="-130" width="240" height="150" as="geometry" />
        </mxCell>
        <mxCell id="sh7tVW11IKmXvSeuLfNp-132" value="bourgeoisie_stored_yields" style="text;strokeColor=none;fillColor=none;align=left;verticalAlign=middle;spacingLeft=4;spacingRight=4;overflow=hidden;points=[[0,0.5],[1,0.5]];portConstraint=eastwest;rotatable=0;whiteSpace=wrap;html=1;fontFamily=Courier New;fontSize=11;fontColor=default;fontStyle=0;labelBackgroundColor=none;" vertex="1" parent="sh7tVW11IKmXvSeuLfNp-131">
          <mxGeometry y="30" width="240" height="30" as="geometry" />
        </mxCell>
        <mxCell id="sh7tVW11IKmXvSeuLfNp-133" value="bourgeoisie_yields_pt" style="text;strokeColor=none;fillColor=none;align=left;verticalAlign=middle;spacingLeft=4;spacingRight=4;overflow=hidden;points=[[0,0.5],[1,0.5]];portConstraint=eastwest;rotatable=0;whiteSpace=wrap;html=1;fontFamily=Courier New;fontSize=11;fontColor=default;fontStyle=0;labelBackgroundColor=none;" vertex="1" parent="sh7tVW11IKmXvSeuLfNp-131">
          <mxGeometry y="60" width="240" height="30" as="geometry" />
        </mxCell>
        <mxCell id="sh7tVW11IKmXvSeuLfNp-134" value="top_lvl_admins[] " style="text;strokeColor=none;fillColor=none;align=left;verticalAlign=middle;spacingLeft=4;spacingRight=4;overflow=hidden;points=[[0,0.5],[1,0.5]];portConstraint=eastwest;rotatable=0;whiteSpace=wrap;html=1;fontFamily=Courier New;fontSize=11;fontColor=default;fontStyle=0;labelBackgroundColor=none;" vertex="1" parent="sh7tVW11IKmXvSeuLfNp-131">
          <mxGeometry y="90" width="240" height="30" as="geometry" />
        </mxCell>
        <mxCell id="sh7tVW11IKmXvSeuLfNp-135" value="bourgeoisie_yields_pt" style="text;strokeColor=none;fillColor=none;align=left;verticalAlign=middle;spacingLeft=4;spacingRight=4;overflow=hidden;points=[[0,0.5],[1,0.5]];portConstraint=eastwest;rotatable=0;whiteSpace=wrap;html=1;fontFamily=Courier New;fontSize=11;fontColor=default;fontStyle=0;labelBackgroundColor=none;" vertex="1" parent="sh7tVW11IKmXvSeuLfNp-131">
          <mxGeometry y="120" width="240" height="30" as="geometry" />
        </mxCell>
        <mxCell id="sh7tVW11IKmXvSeuLfNp-136" style="edgeStyle=elbowEdgeStyle;shape=connector;rounded=1;jumpStyle=arc;orthogonalLoop=1;jettySize=auto;elbow=horizontal;html=1;exitX=0;exitY=0.5;exitDx=0;exitDy=0;strokeColor=#990000;strokeWidth=2;align=center;verticalAlign=middle;fontFamily=Courier New;fontSize=11;fontColor=default;labelBackgroundColor=default;startArrow=baseDash;startFill=0;endArrow=classic;" edge="1" parent="1" source="sh7tVW11IKmXvSeuLfNp-82" target="sh7tVW11IKmXvSeuLfNp-131">
          <mxGeometry relative="1" as="geometry" />
        </mxCell>
        <mxCell id="sh7tVW11IKmXvSeuLfNp-137" style="edgeStyle=elbowEdgeStyle;shape=connector;rounded=1;jumpStyle=arc;orthogonalLoop=1;jettySize=auto;elbow=horizontal;html=1;strokeColor=#990000;strokeWidth=2;align=center;verticalAlign=middle;fontFamily=Courier New;fontSize=11;fontColor=default;labelBackgroundColor=default;startArrow=baseDash;startFill=0;endArrow=classic;" edge="1" parent="1" source="sh7tVW11IKmXvSeuLfNp-120" target="sh7tVW11IKmXvSeuLfNp-131">
          <mxGeometry relative="1" as="geometry" />
        </mxCell>
      </root>
    </mxGraphModel>
  </diagram>
</mxfile>
